<?xml version="1.0" encoding="UTF-8"?>
<svg xmlns="http://www.w3.org/2000/svg" version="1.2" baseProfile="tiny-ps" viewBox="0 0 1254 1254">
  <title>STARXV</title>
  <desc>STARXV brand logo for BIMI</desc>
  <rect x="0" y="0" width="1254" height="1254" fill="#000000"/>
  <path d="M 506 910 L 505 911 L 505 913 L 506 914 L 508 914 L 509 913 L 509 911 L 508 910 Z M 170 906 L 171 905 L 172 905 L 173 906 L 172 907 L 171 907 Z M 170 905 L 170 907 L 172 907 L 173 906 L 172 905 Z M 324 903 L 323 906 L 325 908 L 327 908 L 328 907 L 328 904 L 327 903 Z M 224 900 L 223 901 L 223 903 L 224 904 L 225 904 L 226 903 L 226 901 L 225 900 Z M 196 881 L 194 881 L 192 883 L 192 885 L 194 888 L 197 887 L 197 886 L 198 885 L 197 884 L 197 882 Z M 469 879 L 466 882 L 466 888 L 469 890 L 472 890 L 473 889 L 474 889 L 474 888 L 475 887 L 475 882 L 473 880 L 472 880 L 471 879 Z M 277 876 L 275 878 L 274 878 L 273 879 L 273 884 L 275 887 L 277 887 L 278 888 L 279 888 L 280 887 L 281 887 L 284 884 L 284 879 L 279 876 Z M 161 875 L 160 876 L 160 879 L 163 879 L 164 878 L 164 876 L 163 875 Z M 298 866 L 298 868 L 301 869 L 301 866 L 300 865 L 299 866 Z M 240 865 L 237 867 L 237 869 L 236 870 L 237 871 L 237 872 L 239 874 L 242 874 L 244 872 L 244 869 L 243 868 L 243 867 Z M 429 862 L 429 863 L 430 864 L 431 863 L 432 863 L 431 862 Z M 494 858 L 492 860 L 492 865 L 494 867 L 500 867 L 501 866 L 501 860 L 498 857 L 496 857 L 495 858 Z M 600 855 L 600 857 L 602 857 L 602 855 Z M 272 850 L 273 849 L 274 850 L 273 851 Z M 258 849 L 256 849 L 256 851 L 255 852 L 256 851 L 257 852 L 258 851 Z M 341 848 L 342 847 L 343 847 L 344 848 L 343 849 L 342 849 Z M 312 848 L 313 847 L 314 847 L 315 848 L 314 849 L 313 849 Z M 270 849 L 271 849 L 272 850 L 272 851 L 273 851 L 274 850 L 276 850 L 274 850 L 271 848 Z M 426 851 L 426 850 L 425 849 L 425 848 L 426 847 L 424 849 L 423 848 L 422 849 L 424 849 Z M 377 846 L 378 845 L 379 845 L 380 846 L 379 847 L 378 847 Z M 311 846 L 312 845 L 313 845 L 314 846 L 313 847 L 312 847 Z M 295 845 L 296 844 L 297 844 L 298 845 L 297 846 L 296 846 Z M 309 844 L 310 843 L 311 843 L 312 844 L 311 845 L 310 845 Z M 291 844 L 292 843 L 293 844 L 292 845 Z M 396 843 L 397 842 L 398 843 L 398 844 L 397 845 L 396 844 Z M 279 843 L 280 842 L 281 843 L 280 844 Z M 223 843 L 222 844 L 222 847 L 223 848 L 224 847 L 225 847 L 225 845 Z M 291 842 L 292 841 L 293 841 L 294 842 L 293 843 L 292 843 Z M 283 842 L 280 842 L 278 844 L 276 844 L 276 845 L 277 845 L 279 843 L 280 844 L 281 844 Z M 455 841 L 456 840 L 457 841 L 456 842 Z M 266 840 L 267 839 L 268 840 L 267 841 Z M 469 838 L 470 837 L 471 838 L 470 839 Z M 455 839 L 455 838 L 456 837 L 460 837 L 461 838 L 459 840 L 458 840 L 457 841 Z M 234 838 L 235 837 L 236 838 L 235 839 Z M 197 842 L 196 841 L 195 842 L 193 839 L 190 839 L 189 838 L 187 838 L 186 839 L 183 839 L 182 840 L 180 840 L 179 841 L 178 840 L 178 839 L 178 846 L 176 848 L 178 851 L 178 853 L 179 854 L 179 857 L 177 859 L 176 859 L 177 860 L 176 861 L 174 861 L 175 862 L 179 857 L 181 857 L 183 859 L 186 859 L 187 860 L 188 860 L 189 859 L 191 859 L 192 858 L 195 859 L 196 858 L 196 855 L 197 854 L 197 846 L 196 845 L 196 843 Z M 237 840 L 235 837 L 234 838 L 232 838 L 232 839 L 233 839 L 234 838 Z M 534 835 L 533 836 L 534 836 L 535 837 L 535 838 L 536 838 L 535 837 L 536 836 L 535 836 Z M 192 832 L 192 833 L 195 833 L 195 832 Z M 531 831 L 532 830 L 533 831 L 532 832 Z M 530 830 L 531 829 L 532 830 L 531 831 Z M 202 830 L 203 829 L 204 830 L 203 831 Z M 202 828 L 202 831 L 203 831 L 204 830 L 203 829 L 203 828 Z M 554 826 L 555 825 L 558 825 L 559 826 L 556 829 Z M 169 825 L 167 823 L 166 824 L 165 824 L 164 825 L 164 826 L 165 827 L 168 827 L 169 826 Z M 183 823 L 182 822 L 181 822 L 180 823 L 181 824 L 180 825 L 181 825 Z M 581 821 L 582 820 L 583 821 L 582 822 Z M 209 821 L 210 820 L 211 821 L 210 822 Z M 605 816 L 606 815 L 607 816 L 606 817 Z M 490 815 L 491 814 L 492 815 L 491 816 Z M 487 815 L 488 814 L 489 815 L 488 816 Z M 507 813 L 508 812 L 509 813 L 508 814 Z M 503 813 L 504 812 L 505 813 L 504 814 Z M 342 813 L 340 815 L 339 814 L 338 814 L 338 815 L 339 814 L 340 815 L 342 815 L 341 814 Z M 290 812 L 291 811 L 292 812 L 291 813 Z M 543 809 L 544 808 L 545 809 L 544 810 Z M 540 809 L 541 808 L 542 809 L 541 810 Z M 507 809 L 508 808 L 509 808 L 510 809 L 511 809 L 512 808 L 513 809 L 514 809 L 515 810 L 515 811 L 513 813 L 511 813 L 510 812 L 508 812 L 507 811 L 508 810 Z M 507 807 L 508 806 L 509 807 L 508 808 Z M 364 807 L 365 806 L 366 806 L 367 807 L 366 808 L 365 808 Z M 364 807 L 365 808 L 367 808 L 367 807 L 366 806 L 365 806 Z M 561 804 L 562 803 L 563 804 L 562 805 Z M 525 803 L 526 804 L 525 805 L 526 804 L 528 804 L 527 803 Z M 553 802 L 554 801 L 555 802 L 554 803 Z M 602 800 L 603 801 L 603 802 L 602 803 L 601 803 L 600 802 Z M 360 802 L 360 803 L 364 803 L 364 802 L 362 802 L 361 801 Z M 130 800 L 131 801 L 131 802 L 130 803 L 129 803 L 128 802 Z M 678 800 L 679 799 L 680 799 L 681 800 L 680 801 L 679 801 Z M 566 800 L 567 800 L 568 801 L 569 801 L 570 800 Z M 555 800 L 554 801 L 553 801 L 553 802 L 554 803 L 556 801 Z M 681 799 L 682 798 L 683 799 L 682 800 Z M 686 797 L 687 798 L 687 799 L 686 800 L 683 801 L 682 800 L 684 798 L 685 798 Z M 595 798 L 596 797 L 597 798 L 596 799 Z M 132 797 L 133 796 L 135 798 L 135 799 L 134 800 L 132 798 Z M 108 797 L 109 796 L 110 797 L 110 798 L 109 799 L 108 798 Z M 642 794 L 643 793 L 644 794 L 643 795 Z M 628 794 L 629 793 L 630 794 L 630 795 L 629 796 L 628 795 Z M 137 794 L 138 793 L 139 794 L 138 795 Z M 178 792 L 179 791 L 181 791 L 182 792 L 180 794 Z M 139 792 L 140 791 L 141 791 L 142 792 L 141 793 L 140 793 Z M 658 791 L 659 790 L 660 791 L 659 792 Z M 141 791 L 142 790 L 143 791 L 142 792 Z M 494 790 L 495 789 L 496 790 L 495 791 Z M 495 788 L 493 790 L 494 791 L 495 791 L 496 790 L 496 789 Z M 733 785 L 734 784 L 735 785 L 734 786 Z M 745 784 L 746 783 L 747 784 L 746 785 Z M 689 784 L 690 783 L 691 783 L 692 784 L 691 785 L 690 785 Z M 341 783 L 341 786 L 342 786 L 342 785 L 341 784 L 342 783 Z M 761 781 L 763 783 L 764 783 L 762 781 Z M 757 780 L 758 779 L 759 780 L 758 781 Z M 756 779 L 757 778 L 758 779 L 757 780 Z M 715 779 L 716 778 L 717 779 L 716 780 Z M 716 778 L 717 777 L 718 778 L 717 779 Z M 715 777 L 716 776 L 717 777 L 716 778 Z M 217 776 L 218 775 L 219 776 L 218 777 Z M 723 776 L 723 775 L 724 774 L 725 774 L 726 775 L 724 777 Z M 221 776 L 220 777 L 218 775 L 216 778 L 216 779 L 217 780 L 216 781 L 217 781 L 217 780 L 218 779 L 219 779 L 219 778 L 220 777 L 221 778 Z M 135 774 L 136 773 L 137 774 L 136 775 Z M 225 773 L 226 774 L 225 775 L 224 775 L 224 776 L 225 777 L 227 777 L 226 776 L 226 774 Z M 728 772 L 729 771 L 730 772 L 730 773 L 729 774 L 728 773 Z M 249 771 L 250 770 L 251 771 L 250 772 Z M 250 770 L 249 771 L 250 772 L 250 773 L 250 772 L 251 771 Z M 753 769 L 754 768 L 755 769 L 754 770 Z M 208 769 L 207 769 L 207 770 L 206 771 L 207 772 L 207 770 Z M 790 768 L 791 767 L 792 768 L 791 769 Z M 263 767 L 262 767 L 261 768 L 263 768 Z M 232 767 L 230 770 L 230 771 L 231 771 L 232 772 L 231 771 L 231 770 L 232 769 L 231 768 Z M 216 768 L 217 769 L 219 769 L 218 769 L 217 768 L 217 767 Z M 182 767 L 183 766 L 184 767 L 183 768 Z M 172 767 L 176 767 L 176 766 L 175 766 L 174 767 L 173 766 Z M 183 764 L 184 763 L 185 764 L 184 765 Z M 405 761 L 404 762 L 404 763 L 406 765 L 407 765 L 409 762 L 408 761 Z M 393 761 L 394 760 L 395 761 L 394 762 Z M 254 761 L 255 760 L 256 761 L 255 762 Z M 252 760 L 253 761 L 253 763 L 252 764 L 250 762 Z M 760 760 L 757 763 L 758 762 L 760 762 Z M 588 760 L 589 759 L 590 760 L 589 761 Z M 378 760 L 379 759 L 380 759 L 381 760 L 380 761 L 379 761 Z M 255 760 L 256 759 L 257 760 L 256 761 Z M 126 760 L 127 759 L 128 760 L 128 761 L 127 762 L 126 761 Z M 115 760 L 116 759 L 117 760 L 116 761 Z M 752 760 L 752 761 L 753 761 L 754 760 L 755 761 L 755 760 L 754 760 L 753 759 Z M 589 759 L 590 758 L 591 759 L 590 760 Z M 190 759 L 191 760 L 188 763 L 188 764 L 185 767 L 184 767 L 183 766 L 185 764 L 185 763 L 183 761 L 184 760 L 184 759 L 185 758 L 186 759 Z M 590 758 L 591 757 L 592 758 L 591 759 Z M 585 757 L 586 756 L 587 757 L 586 758 Z M 491 757 L 492 756 L 493 757 L 492 758 Z M 400 757 L 401 756 L 402 757 L 401 758 Z M 172 758 L 174 756 L 176 758 L 175 759 L 173 759 Z M 165 757 L 164 757 L 163 758 L 163 759 L 164 759 L 165 758 Z M 376 757 L 379 755 L 380 756 L 381 756 L 383 758 L 383 759 L 382 760 L 381 760 L 380 759 L 380 758 L 379 759 L 377 759 L 376 758 Z M 175 756 L 176 755 L 177 756 L 177 757 L 176 758 L 175 757 Z M 398 755 L 399 754 L 400 755 L 399 756 Z M 357 755 L 358 754 L 359 755 L 359 756 L 358 757 L 357 756 Z M 608 754 L 609 753 L 610 754 L 609 755 Z M 465 756 L 465 754 L 466 753 L 468 755 L 466 757 Z M 279 754 L 280 753 L 281 754 L 280 755 Z M 153 752 L 151 754 L 150 753 L 149 753 L 149 754 L 150 755 L 148 757 L 149 758 L 149 760 L 151 763 L 150 764 L 148 764 L 147 765 L 147 766 L 148 767 L 150 767 L 150 764 L 151 763 L 156 763 L 156 762 L 157 761 L 157 760 L 155 757 L 156 756 L 155 757 L 152 755 L 153 754 Z M 111 752 L 111 753 L 113 753 L 112 752 Z M 295 751 L 295 753 L 296 753 L 296 751 Z M 665 749 L 666 748 L 667 749 L 666 750 Z M 412 748 L 413 747 L 414 748 L 413 749 Z M 72 748 L 70 750 L 71 751 L 73 751 L 73 749 Z M 683 747 L 684 746 L 685 746 L 686 747 L 685 748 L 684 748 Z M 336 747 L 336 750 L 337 750 L 338 751 L 338 750 L 337 749 L 337 747 Z M 126 743 L 128 741 L 130 741 L 128 741 L 127 740 L 126 740 Z M 525 739 L 526 738 L 527 739 L 526 740 Z M 122 736 L 121 737 L 121 741 L 120 742 L 120 746 L 119 747 L 118 746 L 118 745 L 117 745 L 117 746 L 118 746 L 119 747 L 119 750 L 118 751 L 117 751 L 117 752 L 118 752 L 119 753 L 118 754 L 118 757 L 117 758 L 115 758 L 114 761 L 116 763 L 114 765 L 113 765 L 112 768 L 111 769 L 109 769 L 108 770 L 107 769 L 106 769 L 105 770 L 106 769 L 108 771 L 107 772 L 104 773 L 103 776 L 102 777 L 101 776 L 97 780 L 94 780 L 93 779 L 93 778 L 92 779 L 93 779 L 94 780 L 93 781 L 90 781 L 87 783 L 83 783 L 82 782 L 83 781 L 82 780 L 83 781 L 81 783 L 80 782 L 81 783 L 80 784 L 74 784 L 74 786 L 75 785 L 76 786 L 85 786 L 86 787 L 88 787 L 91 789 L 90 790 L 91 790 L 92 789 L 93 790 L 93 792 L 95 790 L 97 792 L 98 791 L 99 791 L 100 792 L 103 792 L 104 793 L 102 795 L 100 795 L 101 796 L 103 794 L 105 797 L 99 801 L 98 801 L 97 800 L 96 801 L 96 802 L 101 800 L 103 798 L 104 798 L 105 799 L 105 798 L 106 797 L 108 799 L 109 799 L 110 798 L 112 800 L 111 801 L 113 803 L 112 804 L 113 805 L 114 805 L 116 808 L 116 814 L 118 817 L 118 824 L 119 825 L 118 826 L 118 827 L 119 828 L 119 844 L 118 845 L 118 860 L 121 863 L 122 862 L 123 862 L 125 860 L 125 848 L 124 847 L 124 825 L 125 824 L 125 817 L 126 816 L 127 816 L 126 816 L 125 815 L 126 814 L 126 811 L 127 810 L 127 805 L 128 804 L 130 804 L 130 803 L 131 802 L 131 801 L 130 800 L 131 799 L 133 799 L 134 800 L 133 801 L 134 802 L 133 803 L 134 802 L 134 801 L 135 800 L 136 800 L 136 799 L 137 798 L 139 800 L 139 801 L 140 801 L 141 800 L 143 800 L 143 799 L 142 800 L 139 800 L 138 799 L 139 798 L 139 796 L 138 795 L 139 794 L 140 794 L 143 791 L 144 791 L 143 790 L 144 789 L 145 789 L 146 788 L 148 788 L 149 789 L 148 788 L 149 787 L 150 787 L 151 788 L 151 789 L 152 789 L 152 788 L 153 787 L 155 787 L 156 786 L 163 786 L 164 785 L 166 785 L 165 785 L 164 784 L 160 784 L 159 783 L 158 783 L 157 784 L 156 783 L 154 783 L 153 782 L 153 781 L 152 781 L 151 782 L 150 781 L 148 781 L 147 780 L 147 779 L 146 780 L 145 780 L 142 777 L 141 777 L 142 778 L 141 779 L 139 779 L 138 778 L 137 778 L 135 776 L 136 775 L 141 775 L 141 773 L 142 772 L 141 773 L 140 772 L 139 772 L 138 773 L 137 773 L 136 772 L 133 774 L 132 774 L 131 773 L 131 772 L 129 770 L 130 769 L 132 769 L 132 767 L 130 769 L 129 768 L 130 765 L 128 765 L 127 764 L 129 762 L 129 761 L 128 760 L 128 758 L 127 757 L 126 757 L 124 754 L 124 752 L 126 750 L 124 750 L 123 749 L 123 743 L 122 742 Z M 332 729 L 333 728 L 334 729 L 333 730 Z M 331 720 L 332 719 L 333 720 L 332 721 Z M 331 706 L 332 705 L 333 706 L 332 707 Z M 330 705 L 331 704 L 332 705 L 331 706 Z M 96 705 L 95 706 L 94 706 L 92 708 L 92 712 L 93 712 L 94 713 L 97 713 L 99 711 L 99 708 L 98 707 L 98 706 L 97 706 Z M 710 700 L 711 699 L 712 700 L 711 701 Z M 113 693 L 114 693 L 115 694 L 114 695 L 113 695 L 114 695 L 115 696 L 117 696 L 117 695 L 118 694 L 117 693 L 117 695 L 116 696 L 115 695 L 115 694 L 114 693 Z M 115 681 L 114 680 L 112 680 L 112 682 L 111 683 L 110 682 L 110 681 L 110 682 L 111 683 L 113 683 L 112 682 L 112 681 L 113 680 L 114 681 Z M 456 677 L 457 676 L 458 677 L 457 678 Z M 435 676 L 436 675 L 437 676 L 436 677 Z M 128 671 L 129 670 L 130 671 L 129 672 Z M 332 669 L 333 670 L 335 670 L 335 669 L 334 669 L 333 668 Z M 470 660 L 471 659 L 472 660 L 471 661 Z M 367 660 L 368 659 L 369 660 L 368 661 Z M 356 659 L 357 660 L 356 661 L 355 661 L 356 662 L 357 662 L 357 660 Z M 128 658 L 129 657 L 130 658 L 129 659 Z M 132 656 L 133 655 L 134 656 L 133 657 Z M 128 656 L 128 658 L 129 659 L 130 659 L 130 657 L 129 656 Z M 151 655 L 152 654 L 153 655 L 152 656 Z M 139 653 L 140 654 L 140 655 L 137 657 L 136 656 L 136 655 Z M 153 652 L 154 651 L 155 652 L 154 653 Z M 150 649 L 151 648 L 152 649 L 151 650 Z M 319 646 L 318 646 L 317 647 L 317 648 L 318 647 L 319 647 Z M 139 646 L 140 645 L 141 646 L 140 647 Z M 420 644 L 421 643 L 422 644 L 421 645 Z M 139 644 L 138 645 L 140 647 L 141 647 L 140 644 Z M 65 644 L 65 647 L 68 647 L 68 644 Z M 317 643 L 318 644 L 320 644 L 319 643 Z M 343 641 L 344 642 L 344 643 L 345 642 L 346 643 L 344 641 Z M 329 641 L 326 642 L 329 642 Z M 150 640 L 151 639 L 152 640 L 151 641 Z M 152 639 L 150 639 L 150 641 L 149 642 L 148 642 L 149 643 L 151 641 L 152 641 Z M 98 639 L 96 642 L 98 644 L 101 644 L 101 643 L 102 642 L 102 640 L 101 639 Z M 332 637 L 333 636 L 334 637 L 333 638 Z M 320 635 L 321 634 L 322 634 L 323 635 L 322 636 L 321 636 Z M 353 632 L 354 631 L 355 632 L 354 633 Z M 359 629 L 360 628 L 361 629 L 360 630 Z M 469 626 L 470 625 L 471 626 L 470 627 Z M 144 627 L 141 626 L 141 627 L 140 628 L 138 628 L 137 629 L 136 628 L 135 628 L 133 626 L 131 626 L 128 628 L 126 628 L 126 629 L 124 632 L 124 636 L 125 637 L 125 638 L 127 640 L 130 640 L 132 642 L 132 641 L 133 640 L 135 640 L 136 639 L 136 638 L 138 636 L 138 632 L 139 631 L 139 630 L 140 629 L 141 630 L 142 629 L 143 629 L 141 629 L 140 628 L 141 627 Z M 454 625 L 455 624 L 456 625 L 455 626 Z M 305 625 L 306 624 L 307 624 L 308 625 L 310 625 L 311 626 L 310 627 L 307 627 Z M 308 624 L 309 623 L 310 624 L 309 625 Z M 691 617 L 692 616 L 693 617 L 692 618 Z M 139 616 L 137 616 L 136 617 L 137 618 L 137 617 L 138 616 Z M 695 613 L 696 612 L 697 613 L 696 614 Z M 550 612 L 551 613 L 551 619 L 552 620 L 552 623 L 553 624 L 553 627 L 555 630 L 555 632 L 558 635 L 558 636 L 559 636 L 564 639 L 566 639 L 567 640 L 570 640 L 571 641 L 576 641 L 577 642 L 577 643 L 576 644 L 573 644 L 572 645 L 568 645 L 565 647 L 563 647 L 562 648 L 561 648 L 559 650 L 558 650 L 556 652 L 556 653 L 554 656 L 554 658 L 553 659 L 553 661 L 552 662 L 552 667 L 551 668 L 551 672 L 550 673 L 549 672 L 549 669 L 548 668 L 548 664 L 547 663 L 547 660 L 546 659 L 546 657 L 545 656 L 544 653 L 540 649 L 539 649 L 537 647 L 536 647 L 535 646 L 533 646 L 532 645 L 529 645 L 528 644 L 523 644 L 520 642 L 521 641 L 527 641 L 528 640 L 532 640 L 533 639 L 535 639 L 536 638 L 538 638 L 541 635 L 542 635 L 544 633 L 544 632 L 546 629 L 546 627 L 547 626 L 547 624 L 548 623 L 548 619 L 549 618 L 549 613 Z M 694 611 L 695 612 L 695 614 L 694 615 L 693 614 L 693 612 Z M 92 610 L 91 611 L 91 612 L 92 613 L 94 613 L 95 612 L 95 611 L 94 610 Z M 134 606 L 133 605 L 133 606 L 132 607 L 133 607 Z M 694 611 L 699 606 L 700 606 L 703 604 L 705 604 L 706 603 L 718 603 L 719 604 L 722 605 L 727 610 L 727 611 L 728 612 L 728 619 L 727 620 L 726 623 L 720 629 L 719 629 L 718 630 L 716 630 L 715 631 L 713 631 L 712 632 L 702 632 L 701 631 L 698 631 L 697 630 L 696 630 L 693 627 L 694 626 L 693 627 L 692 626 L 692 625 L 693 624 L 693 622 L 693 623 L 692 624 L 690 621 L 692 618 L 693 619 L 693 620 L 693 617 L 694 616 L 695 616 L 694 615 L 697 613 L 697 612 L 695 612 Z M 127 602 L 128 601 L 129 602 L 128 603 Z M 114 600 L 114 602 L 116 602 L 116 600 Z M 139 599 L 138 599 L 137 602 L 139 602 Z M 136 597 L 139 597 L 140 596 L 141 596 L 137 596 Z M 130 593 L 128 593 L 128 595 L 124 600 L 125 601 L 125 602 L 127 602 L 128 603 L 127 604 L 127 605 L 129 608 L 130 607 L 130 605 L 131 604 L 131 603 L 130 603 L 128 601 L 130 599 L 130 598 L 129 597 L 131 595 L 131 594 Z M 141 592 L 140 592 L 139 593 L 139 594 L 140 593 L 141 594 Z M 135 589 L 135 590 L 136 591 L 137 591 L 137 590 L 136 590 Z M 139 585 L 138 586 L 137 586 L 137 587 L 138 588 L 140 588 L 139 587 Z M 141 582 L 142 581 L 143 582 L 142 583 Z M 143 580 L 142 580 L 140 582 L 141 583 L 141 584 L 142 583 L 143 584 L 144 583 Z M 147 579 L 146 580 L 146 582 L 147 581 Z M 150 576 L 151 575 L 152 576 L 151 577 Z M 136 576 L 132 576 L 132 578 L 133 579 L 132 580 L 132 581 L 134 583 L 135 582 L 135 580 L 134 579 L 135 578 L 136 578 Z M 152 575 L 153 574 L 154 575 L 153 576 Z M 153 574 L 154 573 L 155 574 L 154 575 Z M 71 573 L 68 575 L 68 576 L 66 578 L 66 580 L 67 581 L 67 584 L 70 587 L 72 587 L 73 588 L 74 588 L 75 587 L 77 587 L 78 586 L 79 586 L 79 585 L 81 582 L 81 580 L 80 579 L 80 578 L 81 577 L 80 576 L 79 576 L 78 575 L 78 574 L 75 574 L 74 573 Z M 152 572 L 153 571 L 154 572 L 153 573 Z M 146 572 L 147 573 L 146 574 L 146 575 L 149 574 L 148 574 L 147 573 L 148 572 Z M 509 569 L 510 568 L 511 569 L 510 570 Z M 307 566 L 308 565 L 309 566 L 308 567 Z M 66 565 L 65 566 L 65 567 L 66 568 L 67 568 L 68 567 L 68 566 L 67 565 Z M 155 563 L 156 562 L 158 562 L 159 563 L 158 564 L 156 564 Z M 145 563 L 145 564 L 146 564 L 147 565 L 147 566 L 146 567 L 150 567 L 150 565 L 151 564 L 151 563 L 148 563 L 147 564 L 146 563 Z M 171 562 L 172 561 L 173 562 L 172 563 Z M 156 561 L 157 560 L 158 561 L 157 562 Z M 291 562 L 294 565 L 297 564 L 296 564 L 295 563 L 296 562 L 293 564 L 292 563 L 292 562 L 293 561 L 294 561 L 294 560 L 293 560 Z M 121 561 L 121 562 L 124 564 L 126 564 L 126 563 L 127 562 L 128 563 L 126 561 L 126 560 L 125 560 L 124 559 Z M 150 556 L 146 556 L 145 557 L 142 557 L 142 558 L 144 560 L 145 560 L 146 559 L 148 559 L 150 557 Z M 511 555 L 512 554 L 513 555 L 512 556 Z M 512 554 L 511 555 L 512 556 L 513 555 Z M 477 556 L 470 554 L 450 554 L 417 564 L 393 568 L 377 567 L 376 565 L 375 567 L 362 565 L 359 561 L 356 560 L 354 563 L 349 562 L 344 559 L 346 560 L 345 561 L 342 560 L 324 561 L 312 566 L 309 564 L 308 565 L 306 564 L 307 571 L 304 577 L 304 584 L 306 589 L 305 614 L 308 621 L 305 625 L 303 624 L 304 626 L 309 628 L 313 627 L 318 630 L 321 634 L 320 635 L 321 636 L 323 635 L 325 637 L 325 639 L 326 638 L 327 639 L 330 638 L 334 639 L 335 637 L 337 638 L 336 636 L 337 635 L 339 636 L 350 635 L 353 632 L 355 633 L 354 631 L 356 629 L 357 631 L 358 629 L 359 631 L 361 629 L 364 630 L 363 628 L 370 623 L 371 624 L 374 623 L 377 627 L 376 644 L 373 645 L 375 646 L 372 649 L 373 651 L 369 655 L 368 659 L 365 662 L 367 660 L 368 661 L 367 665 L 344 695 L 339 704 L 335 719 L 334 720 L 333 719 L 333 716 L 330 719 L 334 723 L 335 727 L 332 729 L 332 731 L 333 730 L 334 732 L 330 734 L 331 736 L 328 739 L 331 740 L 332 739 L 330 737 L 331 736 L 340 743 L 340 745 L 342 746 L 344 750 L 346 748 L 348 748 L 355 751 L 356 754 L 354 757 L 356 757 L 358 759 L 360 758 L 361 759 L 360 760 L 361 759 L 365 760 L 364 763 L 366 766 L 364 770 L 364 777 L 366 779 L 370 779 L 372 775 L 370 766 L 373 765 L 370 764 L 373 760 L 375 761 L 373 759 L 376 758 L 378 763 L 383 759 L 384 760 L 384 762 L 378 766 L 384 764 L 386 768 L 386 785 L 385 791 L 384 792 L 383 791 L 385 800 L 389 804 L 392 803 L 394 799 L 392 774 L 393 773 L 393 764 L 395 762 L 394 760 L 396 756 L 401 758 L 400 760 L 402 760 L 405 753 L 411 751 L 413 752 L 412 754 L 410 754 L 412 755 L 413 753 L 412 751 L 416 748 L 416 745 L 425 736 L 426 737 L 428 736 L 426 737 L 425 735 L 431 726 L 436 710 L 437 703 L 436 698 L 438 697 L 436 696 L 437 693 L 435 692 L 435 685 L 436 684 L 437 686 L 436 684 L 437 681 L 435 680 L 438 678 L 437 677 L 438 676 L 434 674 L 435 671 L 436 673 L 436 670 L 434 668 L 435 669 L 434 672 L 431 669 L 431 667 L 429 666 L 429 663 L 427 662 L 427 658 L 429 657 L 426 655 L 427 654 L 426 651 L 423 648 L 424 644 L 423 639 L 426 638 L 422 639 L 421 641 L 419 640 L 419 629 L 422 623 L 429 617 L 439 617 L 449 622 L 454 623 L 455 624 L 453 625 L 454 626 L 457 625 L 459 627 L 460 625 L 464 626 L 465 625 L 469 626 L 470 629 L 471 628 L 472 629 L 471 628 L 472 627 L 475 628 L 473 626 L 474 624 L 476 623 L 478 624 L 479 622 L 481 623 L 480 622 L 489 614 L 494 606 L 497 593 L 495 576 L 488 564 Z M 652 551 L 653 550 L 654 551 L 653 552 Z M 518 551 L 519 552 L 519 553 L 520 552 L 519 551 Z M 173 551 L 174 550 L 175 551 L 174 552 Z M 729 550 L 730 549 L 731 550 L 730 551 Z M 658 550 L 659 549 L 660 550 L 659 551 Z M 565 550 L 566 549 L 567 550 L 566 551 Z M 191 550 L 192 549 L 193 549 L 194 550 L 193 551 L 192 551 Z M 567 548 L 568 547 L 569 547 L 570 548 L 569 549 L 568 549 Z M 534 548 L 535 547 L 536 548 L 535 549 Z M 171 548 L 172 547 L 173 548 L 173 549 L 172 550 L 171 549 Z M 541 547 L 542 546 L 543 547 L 542 548 Z M 535 547 L 536 546 L 537 546 L 538 547 L 537 548 L 536 548 Z M 279 547 L 280 546 L 281 547 L 281 548 L 280 549 L 279 548 Z M 139 547 L 138 547 L 136 549 L 137 548 L 139 548 Z M 671 546 L 672 545 L 673 546 L 672 547 Z M 555 546 L 556 545 L 557 546 L 556 547 Z M 277 546 L 278 545 L 279 546 L 278 547 Z M 177 546 L 178 545 L 179 546 L 178 547 Z M 646 553 L 641 559 L 639 558 L 637 561 L 635 561 L 636 563 L 633 565 L 634 566 L 631 568 L 630 570 L 631 571 L 627 575 L 629 576 L 629 581 L 628 582 L 629 584 L 628 587 L 629 588 L 629 591 L 634 602 L 632 604 L 634 604 L 636 606 L 633 607 L 635 608 L 636 606 L 644 616 L 648 624 L 649 632 L 650 633 L 650 637 L 649 638 L 650 639 L 650 648 L 649 649 L 649 653 L 648 654 L 647 653 L 648 654 L 648 657 L 643 672 L 639 694 L 638 695 L 638 718 L 641 729 L 644 736 L 647 739 L 648 743 L 649 741 L 652 744 L 651 745 L 654 744 L 656 746 L 663 748 L 664 751 L 665 749 L 666 751 L 668 749 L 671 750 L 680 747 L 685 748 L 687 747 L 688 744 L 690 743 L 692 745 L 693 744 L 691 743 L 701 734 L 707 723 L 708 724 L 707 723 L 707 720 L 708 719 L 710 722 L 711 721 L 710 722 L 708 719 L 708 714 L 709 713 L 708 707 L 710 706 L 710 702 L 711 701 L 713 703 L 712 702 L 713 699 L 711 696 L 712 697 L 710 698 L 708 702 L 702 690 L 701 681 L 704 677 L 707 678 L 712 683 L 716 691 L 718 697 L 718 701 L 717 702 L 718 701 L 720 704 L 722 715 L 727 727 L 735 738 L 743 743 L 742 745 L 743 743 L 749 746 L 747 747 L 749 746 L 755 747 L 757 750 L 762 751 L 762 750 L 759 750 L 758 749 L 759 748 L 765 748 L 772 746 L 774 747 L 773 746 L 774 745 L 778 744 L 783 740 L 785 740 L 786 737 L 793 729 L 798 718 L 799 705 L 800 704 L 799 702 L 800 700 L 799 694 L 797 692 L 798 689 L 797 687 L 796 688 L 795 687 L 796 685 L 795 686 L 785 675 L 778 671 L 765 668 L 762 666 L 763 664 L 761 666 L 758 665 L 750 657 L 750 654 L 752 652 L 761 649 L 766 646 L 769 649 L 771 649 L 769 647 L 771 646 L 771 644 L 776 640 L 778 642 L 782 638 L 783 639 L 783 638 L 780 638 L 779 637 L 782 635 L 783 631 L 787 626 L 789 621 L 791 620 L 789 618 L 791 611 L 790 598 L 785 586 L 772 571 L 763 565 L 764 564 L 762 565 L 749 558 L 747 558 L 743 554 L 741 555 L 736 554 L 734 552 L 734 550 L 732 552 L 730 549 L 728 549 L 727 551 L 725 549 L 722 550 L 721 548 L 719 550 L 712 549 L 711 548 L 713 546 L 712 547 L 711 545 L 710 548 L 709 546 L 707 547 L 706 545 L 705 546 L 702 546 L 701 545 L 698 546 L 697 545 L 691 545 L 690 546 L 689 545 L 688 546 L 684 545 L 683 546 L 680 546 L 678 545 L 677 547 L 670 545 L 667 546 L 666 548 L 665 547 L 662 547 L 660 550 L 659 548 L 657 550 L 654 550 L 653 549 L 647 555 Z M 282 547 L 281 547 L 279 545 L 277 545 L 277 546 L 276 547 L 275 546 L 274 547 L 270 547 L 270 548 L 271 548 L 272 547 L 273 548 L 275 548 L 276 547 L 278 547 L 279 548 L 279 549 L 280 549 L 281 548 L 282 548 Z M 543 545 L 543 544 L 544 543 L 547 543 L 548 544 L 546 546 L 544 546 Z M 165 545 L 164 546 L 163 545 L 163 544 L 162 545 L 160 545 L 159 546 L 159 548 L 160 548 L 161 549 L 161 550 L 162 550 L 162 547 L 163 546 L 165 546 Z M 263 544 L 262 543 L 261 543 L 259 545 L 262 545 Z M 185 542 L 186 541 L 187 542 L 186 543 Z M 558 541 L 557 541 L 556 542 L 557 543 L 558 542 Z M 562 540 L 558 545 L 551 547 L 547 545 L 550 543 L 549 544 L 543 541 L 543 545 L 541 547 L 540 546 L 538 547 L 537 546 L 538 544 L 533 547 L 534 549 L 528 552 L 527 554 L 522 557 L 520 557 L 517 560 L 517 562 L 516 563 L 514 562 L 514 565 L 511 566 L 512 568 L 511 569 L 509 568 L 510 570 L 508 575 L 506 577 L 503 586 L 498 615 L 494 627 L 487 641 L 481 650 L 478 653 L 476 652 L 478 654 L 476 656 L 475 655 L 474 656 L 475 657 L 472 660 L 471 658 L 469 660 L 471 661 L 470 662 L 468 662 L 466 665 L 464 665 L 465 667 L 462 668 L 464 670 L 456 677 L 457 678 L 451 687 L 451 689 L 445 700 L 442 709 L 441 721 L 442 722 L 442 727 L 444 731 L 444 734 L 448 741 L 451 744 L 448 746 L 449 747 L 451 744 L 455 748 L 461 751 L 466 757 L 465 758 L 468 757 L 469 755 L 470 756 L 475 756 L 476 757 L 475 758 L 477 759 L 476 758 L 477 757 L 480 757 L 481 758 L 480 760 L 479 759 L 480 761 L 481 760 L 485 761 L 488 760 L 489 758 L 491 759 L 493 758 L 495 760 L 493 758 L 494 756 L 498 756 L 499 757 L 506 755 L 508 753 L 510 753 L 509 751 L 515 746 L 516 748 L 515 746 L 520 741 L 522 740 L 526 741 L 527 739 L 526 738 L 527 737 L 525 734 L 528 728 L 529 721 L 531 718 L 533 718 L 532 715 L 532 717 L 531 718 L 530 717 L 530 709 L 532 708 L 531 707 L 531 704 L 533 700 L 539 694 L 544 692 L 554 693 L 561 700 L 562 706 L 558 720 L 558 734 L 561 741 L 563 743 L 561 746 L 564 745 L 569 750 L 573 752 L 572 754 L 575 755 L 577 754 L 583 755 L 585 759 L 584 760 L 586 759 L 590 761 L 594 757 L 595 758 L 598 757 L 601 759 L 600 757 L 602 755 L 605 756 L 607 754 L 608 755 L 610 754 L 611 755 L 609 753 L 614 750 L 615 752 L 615 750 L 623 743 L 629 734 L 633 720 L 633 691 L 627 669 L 620 653 L 621 651 L 623 651 L 621 649 L 620 645 L 618 646 L 617 645 L 618 644 L 616 644 L 613 640 L 615 639 L 612 638 L 612 636 L 610 633 L 610 631 L 612 630 L 609 628 L 610 625 L 608 624 L 610 622 L 612 622 L 609 620 L 609 618 L 609 621 L 608 622 L 606 618 L 606 608 L 605 607 L 605 596 L 606 595 L 606 586 L 605 585 L 606 583 L 604 577 L 599 568 L 588 557 L 586 558 L 582 554 L 580 555 L 577 554 L 573 550 L 571 551 L 569 549 L 572 546 L 571 548 L 569 547 L 569 545 L 567 547 L 566 546 L 564 547 L 563 546 L 565 544 L 564 543 L 560 547 L 559 545 L 562 543 Z M 267 540 L 267 541 L 265 543 L 265 545 L 266 544 L 266 542 L 267 541 L 268 541 Z M 256 541 L 259 540 L 256 540 Z M 176 539 L 176 541 L 177 542 L 178 541 L 179 541 L 179 540 L 177 540 Z M 163 539 L 161 542 L 160 541 L 160 540 L 158 540 L 156 542 L 154 542 L 153 543 L 154 543 L 155 544 L 154 545 L 153 545 L 154 545 L 157 542 L 158 543 L 161 543 L 162 542 L 163 542 L 162 541 L 162 540 Z M 262 538 L 262 539 L 265 540 L 265 539 L 263 539 Z M 530 537 L 531 536 L 532 537 L 531 538 Z M 194 536 L 195 535 L 196 536 L 195 537 Z M 526 535 L 526 537 L 527 538 L 532 538 L 532 537 L 531 536 L 529 536 L 527 534 Z M 448 534 L 449 533 L 450 534 L 449 535 Z M 450 533 L 449 533 L 448 534 L 446 534 L 444 536 L 444 537 L 445 537 L 446 538 L 444 540 L 444 541 L 445 541 L 445 540 L 447 538 L 446 537 L 448 535 L 451 534 Z M 437 533 L 437 535 L 439 535 L 438 534 L 438 533 Z M 263 535 L 264 534 L 266 537 L 269 536 L 270 537 L 270 538 L 271 538 L 271 537 L 270 536 L 271 535 L 271 534 L 269 534 L 268 533 L 268 535 L 267 536 L 266 536 L 264 534 Z M 152 533 L 150 535 L 150 536 L 151 535 L 152 535 Z M 205 532 L 206 531 L 207 532 L 206 533 Z M 255 531 L 253 534 L 253 535 L 254 536 L 253 537 L 253 538 L 254 539 L 257 537 L 257 536 L 254 534 Z M 518 530 L 518 533 L 520 533 L 521 532 L 521 531 L 520 530 Z M 463 530 L 461 530 L 458 532 L 458 533 L 459 532 L 460 533 L 461 536 L 462 536 L 463 535 L 463 534 L 462 533 L 463 532 Z M 249 529 L 248 528 L 245 528 L 243 530 L 243 533 L 241 535 L 240 535 L 237 537 L 235 535 L 237 533 L 238 533 L 238 532 L 236 532 L 235 533 L 236 534 L 235 535 L 235 537 L 234 538 L 233 538 L 233 539 L 234 538 L 244 538 L 247 540 L 248 539 L 250 539 L 251 538 L 250 538 L 249 539 L 247 537 L 247 536 L 248 535 L 249 536 L 250 536 L 251 535 L 250 536 L 249 536 L 246 534 L 246 533 L 248 531 L 248 530 Z M 215 529 L 216 528 L 217 528 L 217 527 L 218 526 L 220 526 L 221 527 L 224 527 L 225 528 L 224 529 L 223 529 L 224 530 L 222 532 L 221 531 L 218 532 L 217 531 L 217 530 L 216 530 Z M 616 526 L 617 525 L 618 526 L 617 527 Z M 132 526 L 131 526 L 130 527 L 128 527 L 128 528 L 127 529 L 127 531 L 130 534 L 131 534 L 134 532 L 134 528 Z M 618 525 L 616 525 L 616 526 L 617 527 L 618 526 Z M 261 525 L 260 528 L 261 529 L 263 529 L 264 528 L 264 527 L 262 525 Z M 596 524 L 595 525 L 596 526 L 596 527 L 597 527 L 598 526 L 598 525 L 597 524 Z M 269 524 L 271 524 L 272 523 L 269 523 Z M 490 523 L 489 522 L 486 521 L 484 524 L 483 524 L 482 525 L 479 525 L 478 526 L 474 526 L 472 528 L 475 526 L 476 527 L 484 527 L 482 525 L 483 524 L 487 524 L 487 523 L 488 522 L 489 522 Z M 556 520 L 555 521 L 556 524 L 558 524 L 559 525 L 558 524 L 561 522 L 560 522 L 558 520 Z M 469 520 L 470 519 L 471 520 L 470 521 Z M 467 520 L 468 519 L 469 520 L 468 521 Z M 210 519 L 211 518 L 212 519 L 211 520 Z M 179 519 L 180 518 L 181 519 L 180 520 Z M 212 518 L 210 518 L 206 524 L 204 524 L 203 523 L 201 523 L 200 522 L 199 523 L 197 523 L 197 524 L 198 525 L 199 524 L 201 524 L 202 525 L 203 525 L 204 524 L 205 525 L 205 527 L 206 527 L 208 525 L 208 523 L 209 522 L 210 523 L 210 524 L 211 524 L 211 523 L 210 523 L 208 521 L 209 520 L 211 520 L 212 519 Z M 502 518 L 499 517 L 498 518 L 496 518 L 495 519 L 493 519 L 493 520 L 492 521 L 491 520 L 491 521 L 492 522 L 493 522 L 494 521 L 494 520 L 496 518 L 498 518 L 499 517 L 500 518 Z M 471 517 L 468 518 L 466 520 L 467 520 L 468 521 L 467 522 L 465 522 L 464 521 L 464 522 L 466 522 L 467 523 L 467 522 L 468 521 L 469 522 L 471 520 L 471 519 L 470 519 L 469 518 L 470 517 Z M 179 515 L 179 516 L 180 517 L 179 518 L 179 519 L 180 520 L 181 520 L 181 517 L 180 516 L 180 515 Z M 505 516 L 506 516 L 506 515 L 507 514 L 508 514 L 509 515 L 509 516 L 510 516 L 512 514 L 506 514 L 505 515 Z M 482 515 L 483 516 L 486 516 L 487 515 L 488 515 L 489 514 L 489 513 L 489 514 L 488 515 L 486 512 L 485 513 L 484 512 L 484 513 L 485 514 L 483 516 Z M 208 512 L 208 513 L 209 514 L 209 512 Z M 254 509 L 254 511 L 253 512 L 253 513 L 254 514 L 255 514 L 255 510 Z M 531 508 L 530 507 L 529 507 L 527 509 L 524 508 L 523 509 L 521 509 L 520 510 L 517 510 L 516 511 L 515 511 L 516 512 L 516 515 L 516 514 L 518 512 L 522 512 L 523 511 L 525 511 L 528 509 L 529 510 L 530 510 L 530 509 Z M 273 508 L 273 509 L 274 510 L 277 510 L 277 509 L 276 510 L 275 509 L 275 507 L 274 507 Z M 125 674 L 128 676 L 125 677 L 126 682 L 124 684 L 125 683 L 126 686 L 123 697 L 128 718 L 137 731 L 148 741 L 157 747 L 175 755 L 172 756 L 172 758 L 169 757 L 170 755 L 167 756 L 170 759 L 170 763 L 172 760 L 181 762 L 181 764 L 183 765 L 182 767 L 184 767 L 185 770 L 181 781 L 181 789 L 176 796 L 178 793 L 183 796 L 182 798 L 194 813 L 195 811 L 205 818 L 203 819 L 206 818 L 210 822 L 213 821 L 217 824 L 222 824 L 227 827 L 228 826 L 231 828 L 230 829 L 232 828 L 234 830 L 236 829 L 237 831 L 242 831 L 243 832 L 241 836 L 245 836 L 245 834 L 247 836 L 252 834 L 253 836 L 250 838 L 254 836 L 257 838 L 262 836 L 268 837 L 269 839 L 266 840 L 270 845 L 271 844 L 268 841 L 272 838 L 274 840 L 276 839 L 278 841 L 277 842 L 284 839 L 286 845 L 286 842 L 289 839 L 292 843 L 291 845 L 295 845 L 296 847 L 298 843 L 302 844 L 300 846 L 307 845 L 311 846 L 313 849 L 318 846 L 322 848 L 320 849 L 324 849 L 326 852 L 326 850 L 324 849 L 325 847 L 327 847 L 328 849 L 331 848 L 331 852 L 334 848 L 335 849 L 338 847 L 342 854 L 344 853 L 342 853 L 343 850 L 347 852 L 344 850 L 345 849 L 351 851 L 349 850 L 350 848 L 356 848 L 359 846 L 367 847 L 369 844 L 370 846 L 373 846 L 375 844 L 377 847 L 379 847 L 384 843 L 388 843 L 390 846 L 393 843 L 396 845 L 396 847 L 398 844 L 399 845 L 400 841 L 402 842 L 406 840 L 418 840 L 420 842 L 423 841 L 425 843 L 430 843 L 433 841 L 439 841 L 438 840 L 441 838 L 450 838 L 452 841 L 456 842 L 455 849 L 458 854 L 471 857 L 470 855 L 474 848 L 472 839 L 473 838 L 475 840 L 477 836 L 478 838 L 481 838 L 480 843 L 482 839 L 484 841 L 482 839 L 483 837 L 489 837 L 490 839 L 491 837 L 494 838 L 492 836 L 493 834 L 500 835 L 503 833 L 506 835 L 508 833 L 518 836 L 516 835 L 522 830 L 523 832 L 526 829 L 528 832 L 532 833 L 539 827 L 545 828 L 547 826 L 548 828 L 552 826 L 556 829 L 558 827 L 563 827 L 565 830 L 563 826 L 570 822 L 577 821 L 579 823 L 584 823 L 583 821 L 586 820 L 586 822 L 589 823 L 587 821 L 590 819 L 592 822 L 594 820 L 596 821 L 599 817 L 601 819 L 600 818 L 602 816 L 608 817 L 614 814 L 619 816 L 617 815 L 619 813 L 621 814 L 621 816 L 624 812 L 633 809 L 646 811 L 647 809 L 646 811 L 638 809 L 660 803 L 664 803 L 665 804 L 663 805 L 670 806 L 667 803 L 674 800 L 684 804 L 684 802 L 689 799 L 688 798 L 690 796 L 695 795 L 697 797 L 698 794 L 708 794 L 710 793 L 710 791 L 725 787 L 729 789 L 727 787 L 733 785 L 734 787 L 739 786 L 740 783 L 742 785 L 742 782 L 746 783 L 744 785 L 747 785 L 747 781 L 753 781 L 755 779 L 758 781 L 760 777 L 765 775 L 774 775 L 775 773 L 776 774 L 777 772 L 784 769 L 789 770 L 789 768 L 791 769 L 801 761 L 805 761 L 807 759 L 801 758 L 791 761 L 779 761 L 778 763 L 771 765 L 762 765 L 760 769 L 758 769 L 757 766 L 756 767 L 752 765 L 752 771 L 745 773 L 744 769 L 740 774 L 731 776 L 731 773 L 729 771 L 726 774 L 724 773 L 725 772 L 723 773 L 721 779 L 717 776 L 719 774 L 720 775 L 718 774 L 713 780 L 711 779 L 708 782 L 707 780 L 702 782 L 696 781 L 692 784 L 691 782 L 686 782 L 689 783 L 688 787 L 680 784 L 674 788 L 670 785 L 667 785 L 663 790 L 659 789 L 658 791 L 652 791 L 652 793 L 650 792 L 648 794 L 637 793 L 636 795 L 632 796 L 629 793 L 628 796 L 624 797 L 623 799 L 613 799 L 609 802 L 608 800 L 605 802 L 602 799 L 603 796 L 600 796 L 599 799 L 596 797 L 595 798 L 597 800 L 593 802 L 594 801 L 595 803 L 591 805 L 590 802 L 589 805 L 586 805 L 584 802 L 579 802 L 578 804 L 575 803 L 577 804 L 573 805 L 572 807 L 571 805 L 569 807 L 562 803 L 558 807 L 552 807 L 550 805 L 547 809 L 540 806 L 537 808 L 536 807 L 533 810 L 528 810 L 527 807 L 520 811 L 518 811 L 517 808 L 515 810 L 507 806 L 506 809 L 508 810 L 505 812 L 503 811 L 504 810 L 501 813 L 500 812 L 496 814 L 493 812 L 495 813 L 484 814 L 479 818 L 476 818 L 474 816 L 473 818 L 463 819 L 463 816 L 460 819 L 453 819 L 452 818 L 455 817 L 455 815 L 450 817 L 449 820 L 446 820 L 442 817 L 441 818 L 440 816 L 441 818 L 439 820 L 423 821 L 423 818 L 420 816 L 423 818 L 417 821 L 410 821 L 409 818 L 405 818 L 403 820 L 400 819 L 397 821 L 388 821 L 387 818 L 381 817 L 379 819 L 372 817 L 370 819 L 358 821 L 354 819 L 359 815 L 356 816 L 354 814 L 354 816 L 352 817 L 354 817 L 354 819 L 350 818 L 349 820 L 346 818 L 344 820 L 334 820 L 331 818 L 335 817 L 335 815 L 333 815 L 332 817 L 330 815 L 324 816 L 322 818 L 312 817 L 311 813 L 308 817 L 304 817 L 304 815 L 301 816 L 298 814 L 298 810 L 299 811 L 294 813 L 293 815 L 291 809 L 289 816 L 288 814 L 282 815 L 277 813 L 274 814 L 270 812 L 262 812 L 262 810 L 252 810 L 225 801 L 213 794 L 205 786 L 202 780 L 201 771 L 206 762 L 213 762 L 214 764 L 222 763 L 223 764 L 221 765 L 221 768 L 223 764 L 226 765 L 227 768 L 231 763 L 235 762 L 238 765 L 237 767 L 241 767 L 246 764 L 252 765 L 261 759 L 263 760 L 264 757 L 268 758 L 270 761 L 274 757 L 274 755 L 276 755 L 276 753 L 278 752 L 280 755 L 280 751 L 284 749 L 287 751 L 288 747 L 291 749 L 291 746 L 297 742 L 303 742 L 301 740 L 316 727 L 327 710 L 333 706 L 330 702 L 331 698 L 333 697 L 332 693 L 337 693 L 334 692 L 336 690 L 332 690 L 332 683 L 335 683 L 333 682 L 333 676 L 331 676 L 331 672 L 326 665 L 327 663 L 326 664 L 318 653 L 309 646 L 289 637 L 276 635 L 240 635 L 224 630 L 218 623 L 220 614 L 226 610 L 232 610 L 236 612 L 245 623 L 259 629 L 278 628 L 286 624 L 293 618 L 294 619 L 293 618 L 299 609 L 301 602 L 301 589 L 299 581 L 294 572 L 281 560 L 283 558 L 280 560 L 273 555 L 251 547 L 250 548 L 223 543 L 222 545 L 208 546 L 207 544 L 205 544 L 208 546 L 197 550 L 192 549 L 187 554 L 176 560 L 174 559 L 184 550 L 196 544 L 198 546 L 200 543 L 206 541 L 209 542 L 212 540 L 224 538 L 228 539 L 225 536 L 226 532 L 223 532 L 226 527 L 229 529 L 230 528 L 228 527 L 235 520 L 233 518 L 234 516 L 232 512 L 235 508 L 234 506 L 237 504 L 234 504 L 229 509 L 227 508 L 228 507 L 226 509 L 221 508 L 215 516 L 217 525 L 214 527 L 212 526 L 211 530 L 210 528 L 207 530 L 203 527 L 204 529 L 202 531 L 197 532 L 196 530 L 194 530 L 195 534 L 191 537 L 190 535 L 192 533 L 189 532 L 187 536 L 183 537 L 182 536 L 185 530 L 185 526 L 180 523 L 175 527 L 175 533 L 179 536 L 182 536 L 182 539 L 185 540 L 177 546 L 172 541 L 172 552 L 164 554 L 163 556 L 161 554 L 158 555 L 157 557 L 161 559 L 164 558 L 165 560 L 159 563 L 157 559 L 154 563 L 157 567 L 156 569 L 158 570 L 155 574 L 152 570 L 153 569 L 151 571 L 152 574 L 150 576 L 152 576 L 153 578 L 148 585 L 149 587 L 147 590 L 147 599 L 145 604 L 145 614 L 147 615 L 149 623 L 162 640 L 181 652 L 227 666 L 235 673 L 235 681 L 231 685 L 223 688 L 212 686 L 206 683 L 201 678 L 202 677 L 201 678 L 183 660 L 173 656 L 162 655 L 161 651 L 159 654 L 154 655 L 153 654 L 156 653 L 155 650 L 159 648 L 158 646 L 153 650 L 145 646 L 143 649 L 147 652 L 146 653 L 137 653 L 135 656 L 132 655 L 136 660 L 129 669 L 129 672 Z M 546 502 L 546 503 L 545 504 L 542 502 L 537 505 L 535 505 L 537 505 L 540 503 L 541 503 L 542 504 L 542 505 L 543 505 L 543 504 L 544 503 L 545 504 L 546 503 Z M 221 502 L 221 504 L 222 504 L 222 502 Z M 519 502 L 518 501 L 516 501 L 515 502 L 512 503 L 510 505 L 509 504 L 509 505 L 508 506 L 506 504 L 507 505 L 506 506 L 502 506 L 502 508 L 501 509 L 498 509 L 496 511 L 495 511 L 498 511 L 500 509 L 502 509 L 503 508 L 505 508 L 505 507 L 506 506 L 508 506 L 509 505 L 511 505 L 513 503 L 514 504 L 515 504 L 515 502 L 516 501 L 517 502 L 518 501 Z M 235 500 L 235 501 L 237 501 L 236 500 Z M 211 499 L 211 502 L 212 503 L 216 503 L 218 505 L 219 504 L 219 503 L 217 503 L 213 499 Z M 526 499 L 527 498 L 528 498 L 529 499 L 530 499 L 531 498 L 533 498 L 534 497 L 534 496 L 532 496 L 531 497 L 530 496 L 530 495 L 529 495 L 529 496 L 528 497 L 527 497 L 527 498 Z M 466 490 L 463 492 L 463 496 L 465 498 L 467 498 L 470 496 L 470 493 L 468 491 L 467 491 Z M 567 487 L 567 485 L 566 486 L 562 486 L 563 487 L 564 487 L 565 486 L 566 486 Z M 258 477 L 254 477 L 253 476 L 251 476 L 250 477 L 248 477 L 245 479 L 245 480 L 243 483 L 243 489 L 244 490 L 245 493 L 246 493 L 247 492 L 248 493 L 250 493 L 251 494 L 252 494 L 253 493 L 255 493 L 260 489 L 260 486 L 261 485 L 261 483 L 260 482 L 260 481 L 259 480 Z M 435 472 L 433 474 L 433 478 L 434 478 L 437 480 L 440 479 L 441 478 L 441 474 L 439 472 Z M 468 464 L 468 465 L 470 467 L 471 466 L 472 466 L 472 464 L 471 463 L 469 463 Z M 170 455 L 168 457 L 168 458 L 170 460 L 172 460 L 173 457 L 171 455 Z" fill="#64C9FF" fill-rule="evenodd"/>
  <path d="M 1055 843 L 1056 842 L 1057 843 L 1057 844 L 1056 845 L 1055 844 Z M 1054 841 L 1053 842 L 1052 842 L 1052 844 L 1054 846 L 1055 846 L 1057 844 L 1057 843 L 1055 841 Z M 1012 810 L 1011 811 L 1010 811 L 1008 813 L 1008 814 L 1009 815 L 1009 817 L 1011 817 L 1012 818 L 1014 818 L 1015 817 L 1016 817 L 1016 812 L 1015 811 Z M 1058 805 L 1059 804 L 1060 805 L 1059 806 Z M 949 806 L 949 807 L 948 808 L 949 809 L 949 810 L 950 811 L 953 811 L 955 808 L 954 807 L 954 806 L 953 805 L 951 805 L 950 806 Z M 1060 804 L 1058 804 L 1058 806 L 1059 806 L 1060 805 Z M 1067 802 L 1068 802 L 1069 801 L 1067 801 Z M 1025 791 L 1025 792 L 1026 793 L 1025 794 L 1026 794 L 1026 792 Z M 1008 782 L 1008 784 L 1009 784 L 1009 782 Z M 1064 781 L 1063 782 L 1063 783 L 1064 783 L 1065 784 L 1065 783 L 1066 782 L 1065 781 Z M 967 780 L 965 782 L 965 785 L 967 787 L 970 788 L 973 785 L 973 783 L 971 780 Z M 1075 779 L 1076 778 L 1077 779 L 1076 780 Z M 1075 778 L 1075 780 L 1077 780 L 1077 778 Z M 1082 775 L 1081 776 L 1081 779 L 1084 779 L 1085 778 L 1085 777 L 1083 775 Z M 856 775 L 857 774 L 858 774 L 859 775 L 859 776 L 858 777 L 857 777 L 856 776 Z M 856 774 L 856 776 L 857 777 L 858 777 L 859 776 L 859 775 L 858 774 Z M 849 774 L 850 773 L 851 773 L 852 774 L 852 775 L 851 776 L 850 776 L 849 775 Z M 811 774 L 810 775 L 810 778 L 812 778 L 813 777 L 813 776 Z M 852 773 L 850 773 L 849 774 L 849 775 L 850 776 L 851 776 L 852 775 Z M 1026 771 L 1027 770 L 1028 771 L 1027 772 Z M 783 771 L 781 773 L 778 773 L 781 775 L 780 776 L 780 777 L 781 778 L 780 777 L 780 776 L 781 775 L 782 776 L 780 774 L 781 773 L 782 773 L 782 772 Z M 1080 769 L 1080 770 L 1083 771 L 1083 770 L 1082 769 Z M 1005 769 L 1005 770 L 1006 771 L 1006 769 Z M 882 769 L 883 768 L 884 769 L 883 770 Z M 1066 768 L 1067 767 L 1068 768 L 1067 769 Z M 884 768 L 882 768 L 882 769 L 883 770 L 884 769 Z M 1026 767 L 1026 768 L 1027 769 L 1026 770 L 1026 772 L 1027 772 L 1028 771 L 1027 770 L 1028 769 L 1027 769 L 1026 768 L 1027 767 Z M 989 767 L 990 766 L 991 766 L 992 767 L 992 768 L 991 769 Z M 992 766 L 990 766 L 989 767 L 990 768 L 988 770 L 990 770 L 991 769 L 992 769 Z M 852 766 L 851 767 L 851 768 L 852 769 L 852 770 L 854 770 L 855 769 L 855 767 L 854 766 Z M 1114 765 L 1115 764 L 1116 764 L 1117 765 L 1116 766 L 1115 766 Z M 825 765 L 826 764 L 827 765 L 826 766 Z M 819 765 L 820 764 L 821 765 L 820 766 Z M 1117 764 L 1114 764 L 1114 766 L 1115 767 L 1117 765 Z M 1003 764 L 1004 763 L 1005 764 L 1004 765 Z M 802 764 L 803 763 L 804 764 L 803 765 Z M 1034 764 L 1036 764 L 1036 763 L 1037 762 L 1034 762 Z M 1003 762 L 1003 765 L 1004 766 L 1006 766 L 1006 764 L 1005 763 L 1005 762 Z M 808 762 L 809 761 L 810 762 L 809 763 Z M 772 761 L 771 761 L 771 762 L 769 764 L 768 763 L 768 762 L 768 763 L 769 764 L 771 764 L 772 763 Z M 1022 760 L 1021 761 L 1022 761 L 1023 762 L 1023 764 L 1023 761 Z M 815 760 L 816 759 L 817 760 L 816 761 Z M 952 758 L 953 757 L 954 758 L 953 759 Z M 1030 757 L 1031 756 L 1032 757 L 1031 758 Z M 822 756 L 823 757 L 823 758 L 825 760 L 823 763 L 821 763 L 820 762 L 821 761 L 822 761 L 822 760 L 820 758 Z M 1022 755 L 1023 754 L 1024 755 L 1023 756 Z M 949 755 L 950 754 L 951 755 L 950 756 Z M 828 755 L 829 754 L 830 755 L 829 756 Z M 801 755 L 802 754 L 803 755 L 802 756 Z M 1030 756 L 1031 759 L 1031 758 L 1032 757 L 1033 758 L 1033 759 L 1033 758 L 1034 757 L 1035 758 L 1037 758 L 1037 755 L 1036 754 L 1035 754 L 1034 755 L 1033 754 L 1034 755 L 1034 756 L 1033 757 L 1032 756 Z M 850 754 L 851 753 L 852 754 L 851 755 Z M 829 754 L 830 753 L 831 754 L 830 755 Z M 809 753 L 810 752 L 811 753 L 810 754 Z M 948 752 L 948 754 L 950 756 L 951 756 L 951 755 L 949 753 L 949 752 Z M 808 752 L 809 751 L 810 752 L 809 753 Z M 797 752 L 798 751 L 799 752 L 798 753 Z M 1114 751 L 1115 751 L 1116 752 L 1116 753 L 1115 754 L 1114 753 L 1114 754 L 1116 754 L 1116 751 Z M 1024 751 L 1022 753 L 1023 754 L 1022 755 L 1023 756 L 1024 755 L 1023 754 L 1024 753 L 1025 753 L 1026 754 L 1026 755 L 1026 754 L 1023 752 Z M 799 751 L 798 751 L 796 753 L 797 752 L 798 753 L 799 752 Z M 1101 750 L 1102 749 L 1103 750 L 1102 751 Z M 995 750 L 995 752 L 994 753 L 994 754 L 996 754 L 996 753 L 997 752 L 996 752 L 995 751 Z M 978 750 L 977 751 L 975 751 L 976 752 L 977 751 L 978 751 Z M 854 750 L 855 749 L 856 750 L 856 751 L 855 752 L 854 751 Z M 1103 750 L 1102 749 L 1101 750 L 1101 751 L 1103 751 Z M 1070 749 L 1071 748 L 1072 749 L 1071 750 Z M 1028 750 L 1028 751 L 1031 751 L 1032 752 L 1032 751 L 1031 751 L 1029 749 Z M 853 749 L 854 748 L 855 749 L 854 750 Z M 1009 748 L 1009 750 L 1010 751 L 1012 751 L 1012 750 L 1011 751 L 1009 749 L 1010 748 Z M 987 748 L 986 749 L 986 750 L 987 751 Z M 935 748 L 935 749 L 938 749 L 938 748 Z M 858 747 L 859 746 L 860 747 L 860 748 L 859 749 L 858 748 Z M 1033 746 L 1034 745 L 1035 746 L 1034 747 Z M 1023 745 L 1022 745 L 1021 746 L 1020 745 L 1020 746 L 1021 747 L 1020 748 L 1018 748 L 1017 747 L 1016 748 L 1019 750 L 1020 750 L 1021 749 L 1023 749 L 1022 748 L 1023 747 Z M 858 745 L 859 744 L 860 745 L 859 746 Z M 1011 745 L 1009 743 L 1007 745 L 1008 746 Z M 1080 741 L 1081 740 L 1082 741 L 1081 742 Z M 1079 740 L 1079 741 L 1080 742 L 1081 742 L 1082 741 L 1082 740 Z M 997 740 L 998 741 L 1002 741 L 1003 742 L 1000 740 Z M 1085 739 L 1086 738 L 1087 739 L 1086 740 Z M 1080 736 L 1080 737 L 1081 737 L 1082 736 L 1083 737 L 1085 737 L 1086 738 L 1085 739 L 1086 740 L 1087 739 L 1084 736 Z M 1011 736 L 1011 737 L 1012 738 L 1012 740 L 1013 741 L 1016 741 L 1017 742 L 1016 743 L 1017 744 L 1018 744 L 1017 744 L 1016 743 L 1017 742 L 1016 741 L 1016 739 L 1016 740 L 1015 741 L 1012 738 L 1012 736 Z M 1005 733 L 1006 732 L 1007 733 L 1006 734 Z M 1141 732 L 1141 734 L 1143 736 L 1146 735 L 1146 732 L 1145 731 L 1142 731 Z M 1003 731 L 1004 731 L 1005 732 L 1004 733 L 1003 733 L 1004 733 L 1006 735 L 1006 736 L 1006 735 L 1007 734 L 1008 735 L 1009 735 L 1011 733 L 1009 733 L 1008 734 L 1006 731 Z M 1087 727 L 1088 728 L 1088 729 L 1086 732 L 1084 729 L 1086 727 Z M 1098 727 L 1099 726 L 1100 727 L 1099 728 Z M 1100 726 L 1099 726 L 1098 727 L 1099 728 L 1098 729 L 1096 729 L 1095 730 L 1096 729 L 1097 730 L 1097 732 L 1096 733 L 1096 735 L 1097 735 L 1099 732 L 1098 729 L 1100 727 Z M 1003 723 L 1004 722 L 1005 723 L 1004 724 Z M 1003 723 L 1004 724 L 1005 723 L 1007 723 L 1008 722 L 1008 721 L 1007 721 L 1006 722 L 1005 722 L 1004 721 L 1003 722 Z M 1094 720 L 1095 719 L 1096 719 L 1097 720 L 1096 721 L 1095 721 Z M 1091 718 L 1092 717 L 1095 717 L 1096 718 L 1094 720 L 1093 720 Z M 1101 718 L 1101 716 L 1102 715 L 1104 717 L 1102 719 Z M 1093 713 L 1094 712 L 1095 713 L 1095 714 L 1094 715 L 1093 714 Z M 1100 712 L 1101 711 L 1102 712 L 1101 713 Z M 1129 704 L 1128 704 L 1128 705 L 1127 706 L 1129 706 Z M 1098 703 L 1098 698 L 1099 697 L 1100 697 L 1101 698 L 1100 699 L 1101 699 L 1104 697 L 1106 699 L 1103 702 L 1100 701 L 1101 701 L 1102 702 L 1102 704 L 1101 705 Z M 1099 694 L 1100 693 L 1101 694 L 1100 695 Z M 1156 692 L 1157 691 L 1158 692 L 1157 693 Z M 1114 692 L 1115 691 L 1117 693 L 1117 694 L 1116 695 L 1115 695 L 1114 694 Z M 1098 692 L 1099 691 L 1100 692 L 1099 693 Z M 1114 691 L 1114 694 L 1115 695 L 1116 695 L 1117 694 L 1117 693 L 1115 691 Z M 1156 690 L 1156 692 L 1157 693 L 1158 693 L 1159 692 L 1159 691 L 1158 690 Z M 1100 690 L 1101 689 L 1102 689 L 1104 691 L 1104 692 L 1103 693 L 1101 693 L 1100 692 Z M 809 688 L 810 687 L 811 688 L 810 689 Z M 1096 687 L 1097 686 L 1098 687 L 1097 688 Z M 1105 686 L 1106 685 L 1107 686 L 1106 687 Z M 1101 686 L 1102 685 L 1104 685 L 1105 686 L 1103 689 Z M 1094 684 L 1097 686 L 1096 687 L 1096 689 L 1095 690 L 1092 690 L 1091 689 Z M 1098 682 L 1099 681 L 1100 682 L 1099 683 Z M 1095 681 L 1096 680 L 1097 681 L 1096 682 Z M 815 681 L 816 680 L 817 680 L 818 681 L 817 682 L 816 682 Z M 810 681 L 811 680 L 812 681 L 812 682 L 811 683 L 810 682 Z M 812 680 L 813 679 L 814 680 L 813 681 Z M 1100 677 L 1101 678 L 1098 681 L 1097 681 L 1096 680 L 1099 677 Z M 793 676 L 794 675 L 795 676 L 794 677 Z M 1109 675 L 1110 674 L 1111 675 L 1110 676 Z M 793 675 L 793 677 L 796 677 L 796 676 L 795 675 Z M 1105 674 L 1106 673 L 1107 674 L 1107 675 L 1106 676 L 1105 675 Z M 1105 671 L 1105 669 L 1106 668 L 1107 668 L 1108 669 L 1108 670 L 1106 672 Z M 1109 666 L 1110 665 L 1111 666 L 1110 667 Z M 1108 665 L 1109 666 L 1109 668 L 1108 669 L 1107 668 L 1107 666 Z M 840 666 L 841 665 L 842 666 L 841 667 Z M 826 666 L 827 665 L 828 666 L 827 667 Z M 841 665 L 842 664 L 843 665 L 842 666 Z M 838 665 L 839 664 L 840 665 L 839 666 Z M 983 663 L 984 662 L 985 663 L 985 664 L 984 665 L 983 664 Z M 1117 662 L 1118 663 L 1119 663 L 1119 662 Z M 838 662 L 839 661 L 840 661 L 841 662 L 840 663 L 839 663 Z M 1047 661 L 1048 660 L 1049 661 L 1048 662 Z M 940 661 L 941 660 L 942 660 L 943 661 L 942 662 L 941 662 Z M 939 660 L 940 659 L 941 660 L 940 661 Z M 944 659 L 945 658 L 946 659 L 945 660 Z M 942 659 L 943 658 L 944 659 L 943 660 Z M 937 659 L 938 658 L 939 659 L 938 660 Z M 826 659 L 827 658 L 828 659 L 827 660 Z M 834 658 L 835 657 L 836 658 L 835 659 Z M 830 658 L 831 657 L 832 658 L 832 659 L 831 660 L 830 659 Z M 827 658 L 826 659 L 827 660 L 828 660 L 828 658 Z M 842 655 L 843 654 L 844 655 L 844 656 L 843 657 L 842 656 Z M 1118 654 L 1119 653 L 1120 654 L 1119 655 Z M 802 654 L 798 654 L 797 655 L 794 655 L 796 657 L 796 658 L 797 659 L 799 659 L 802 657 Z M 823 651 L 821 651 L 819 653 L 819 655 L 820 655 L 821 656 L 824 655 L 824 652 Z M 1116 649 L 1117 648 L 1118 649 L 1118 650 L 1117 651 L 1116 650 Z M 1127 640 L 1128 639 L 1129 640 L 1128 641 Z M 1125 640 L 1126 639 L 1127 640 L 1126 641 Z M 1126 639 L 1127 638 L 1128 639 L 1127 640 Z M 1130 635 L 1131 634 L 1132 635 L 1131 636 Z M 1129 634 L 1130 633 L 1131 634 L 1130 635 Z M 1131 633 L 1132 632 L 1133 633 L 1132 634 Z M 1128 633 L 1129 632 L 1130 633 L 1129 634 Z M 1130 632 L 1131 631 L 1132 632 L 1131 633 Z M 1139 625 L 1140 624 L 1141 625 L 1140 626 Z M 1140 624 L 1141 623 L 1142 624 L 1141 625 Z M 1140 619 L 1141 620 L 1140 621 L 1140 623 L 1138 625 L 1137 624 L 1135 626 L 1134 626 L 1133 625 L 1133 624 L 1135 622 L 1138 621 L 1137 620 L 1138 619 Z M 1135 620 L 1136 619 L 1137 620 L 1136 621 Z M 1136 619 L 1137 618 L 1138 619 L 1137 620 Z M 1136 616 L 1137 615 L 1138 615 L 1139 616 L 1138 617 L 1137 617 Z M 1134 616 L 1135 615 L 1136 616 L 1135 617 Z M 1142 615 L 1143 614 L 1144 615 L 1144 616 L 1143 617 L 1142 616 Z M 1138 604 L 1139 603 L 1140 603 L 1141 604 L 1141 606 L 1140 607 L 1139 607 L 1138 606 Z M 1140 602 L 1141 601 L 1142 602 L 1141 603 Z M 1183 589 L 1184 588 L 1185 589 L 1184 590 Z M 1197 588 L 1196 589 L 1196 591 L 1199 591 L 1199 589 L 1198 588 Z M 1183 589 L 1184 590 L 1185 589 L 1187 589 L 1187 588 L 1186 589 L 1185 588 L 1184 588 Z M 1160 577 L 1161 576 L 1162 577 L 1161 578 Z M 795 572 L 796 571 L 797 572 L 796 573 Z M 1166 570 L 1167 571 L 1166 572 L 1165 575 L 1164 576 L 1161 576 L 1160 577 L 1159 576 L 1159 574 L 1161 572 L 1162 573 L 1162 574 L 1163 573 L 1162 572 L 1162 571 L 1164 569 L 1165 570 Z M 1166 569 L 1167 568 L 1168 568 L 1169 569 L 1169 570 L 1168 571 L 1167 571 L 1166 570 Z M 796 567 L 797 566 L 798 567 L 797 568 Z M 1124 562 L 1125 561 L 1126 561 L 1127 562 L 1127 563 L 1126 564 Z M 915 561 L 916 560 L 917 561 L 916 562 Z M 1167 559 L 1168 558 L 1169 559 L 1168 560 Z M 1182 558 L 1183 557 L 1184 558 L 1183 559 Z M 814 558 L 815 557 L 816 558 L 815 559 Z M 812 558 L 813 557 L 814 558 L 813 559 Z M 1184 558 L 1183 557 L 1182 557 L 1182 559 L 1181 560 L 1180 560 L 1180 561 L 1183 561 L 1183 559 Z M 815 557 L 816 556 L 817 557 L 816 558 Z M 1128 556 L 1129 555 L 1130 556 L 1129 557 Z M 819 555 L 820 554 L 821 555 L 820 556 Z M 817 555 L 818 554 L 819 555 L 818 556 Z M 1129 554 L 1130 553 L 1131 554 L 1130 555 Z M 948 553 L 949 552 L 950 553 L 949 554 Z M 827 553 L 828 552 L 829 553 L 829 554 L 828 555 L 827 554 Z M 814 553 L 815 552 L 816 553 L 815 554 Z M 1130 552 L 1129 553 L 1129 555 L 1128 556 L 1131 558 L 1132 558 L 1133 557 L 1134 558 L 1134 559 L 1134 557 L 1131 557 L 1130 556 L 1133 553 L 1134 554 L 1134 555 L 1135 555 L 1135 553 L 1134 552 Z M 949 552 L 950 551 L 951 552 L 950 553 Z M 941 551 L 942 550 L 943 550 L 944 551 L 943 552 L 942 552 Z M 827 551 L 828 550 L 829 550 L 830 551 L 829 552 L 828 552 Z M 822 551 L 823 550 L 824 551 L 823 552 Z M 808 551 L 809 550 L 810 551 L 809 552 Z M 825 549 L 826 550 L 827 553 L 826 554 L 821 554 L 820 553 L 821 552 L 823 552 Z M 820 550 L 821 549 L 822 550 L 822 551 L 821 552 L 820 551 Z M 806 550 L 805 551 L 806 551 L 807 552 L 807 554 L 808 554 L 810 551 L 809 550 L 808 550 L 807 551 Z M 824 548 L 825 547 L 826 548 L 825 549 Z M 814 547 L 815 546 L 816 546 L 817 547 L 817 548 L 820 550 L 820 552 L 819 553 L 818 552 L 818 551 L 817 552 Z M 959 553 L 956 555 L 956 553 L 952 554 L 950 551 L 947 553 L 945 550 L 942 550 L 932 555 L 928 554 L 927 557 L 922 557 L 921 559 L 917 559 L 909 564 L 904 573 L 900 575 L 902 575 L 903 577 L 897 594 L 896 615 L 894 620 L 888 625 L 884 624 L 878 617 L 874 601 L 875 598 L 873 596 L 871 585 L 867 576 L 858 566 L 861 562 L 859 562 L 860 563 L 858 566 L 852 562 L 854 561 L 851 562 L 836 556 L 830 556 L 829 555 L 832 552 L 831 550 L 829 550 L 830 548 L 827 551 L 825 547 L 823 550 L 821 548 L 820 550 L 815 546 L 814 547 L 816 551 L 811 557 L 810 556 L 809 559 L 806 559 L 805 557 L 803 559 L 802 558 L 801 561 L 800 559 L 798 566 L 796 563 L 795 564 L 796 566 L 794 568 L 796 569 L 793 574 L 795 575 L 794 577 L 793 576 L 794 590 L 799 604 L 808 616 L 813 620 L 811 622 L 814 621 L 836 636 L 836 639 L 838 637 L 846 642 L 852 650 L 851 658 L 844 665 L 841 665 L 840 663 L 843 661 L 841 660 L 846 654 L 842 654 L 840 656 L 840 659 L 837 659 L 834 656 L 833 661 L 830 657 L 832 662 L 830 665 L 827 665 L 826 662 L 826 668 L 823 665 L 818 666 L 818 668 L 820 666 L 822 667 L 823 670 L 822 671 L 821 669 L 822 672 L 819 672 L 820 674 L 817 679 L 815 677 L 816 678 L 814 680 L 812 675 L 810 683 L 815 684 L 815 687 L 813 689 L 810 687 L 811 686 L 810 687 L 808 684 L 806 684 L 809 686 L 807 687 L 809 688 L 808 689 L 812 691 L 805 703 L 803 712 L 801 714 L 803 716 L 802 720 L 805 731 L 810 739 L 818 744 L 832 748 L 834 752 L 832 754 L 826 749 L 819 750 L 818 748 L 817 749 L 814 747 L 816 751 L 811 753 L 810 751 L 812 751 L 812 748 L 811 749 L 810 747 L 811 749 L 808 750 L 807 755 L 806 753 L 800 756 L 808 759 L 805 762 L 801 762 L 795 767 L 797 767 L 798 765 L 801 765 L 802 767 L 807 762 L 810 762 L 812 764 L 813 763 L 812 764 L 810 761 L 813 761 L 814 759 L 816 761 L 818 757 L 820 758 L 821 761 L 819 761 L 821 763 L 817 768 L 820 766 L 823 767 L 822 765 L 826 761 L 826 758 L 830 758 L 831 759 L 828 760 L 828 762 L 830 763 L 828 765 L 825 764 L 825 766 L 830 765 L 830 760 L 833 761 L 832 763 L 835 766 L 834 772 L 836 774 L 833 796 L 834 801 L 837 805 L 841 804 L 843 799 L 841 773 L 843 772 L 842 767 L 847 761 L 846 756 L 849 756 L 849 753 L 851 756 L 853 754 L 857 756 L 858 754 L 855 753 L 859 751 L 863 746 L 863 743 L 861 746 L 859 744 L 857 746 L 852 746 L 851 749 L 843 751 L 842 749 L 845 746 L 856 742 L 870 728 L 871 729 L 870 727 L 873 722 L 876 722 L 874 720 L 880 704 L 883 689 L 886 683 L 891 679 L 896 679 L 901 684 L 900 686 L 901 685 L 903 687 L 909 702 L 908 705 L 910 706 L 913 716 L 923 732 L 922 733 L 924 733 L 928 737 L 928 739 L 930 738 L 937 743 L 934 746 L 937 743 L 943 746 L 944 749 L 950 748 L 955 750 L 952 752 L 957 752 L 955 756 L 953 755 L 952 760 L 958 753 L 962 752 L 964 749 L 967 748 L 968 750 L 972 747 L 974 748 L 974 746 L 976 747 L 976 749 L 980 744 L 981 746 L 981 743 L 988 738 L 993 730 L 995 723 L 995 713 L 993 705 L 987 695 L 972 681 L 972 679 L 970 680 L 942 662 L 946 660 L 946 658 L 943 658 L 941 660 L 938 657 L 937 659 L 931 654 L 929 650 L 929 643 L 932 638 L 937 633 L 942 634 L 939 632 L 947 625 L 950 625 L 949 624 L 966 609 L 972 601 L 978 587 L 978 574 L 973 565 L 974 563 L 972 564 L 968 560 L 960 556 Z M 1170 543 L 1171 542 L 1172 543 L 1171 544 Z M 1119 543 L 1117 543 L 1116 544 L 1115 544 L 1115 545 L 1116 546 L 1117 545 L 1119 545 Z M 1169 540 L 1170 539 L 1171 540 L 1171 541 L 1170 542 L 1169 541 Z M 452 532 L 453 531 L 454 531 L 455 532 L 454 533 L 453 533 Z M 1170 531 L 1171 530 L 1172 531 L 1171 532 Z M 455 531 L 456 530 L 457 530 L 458 531 L 457 532 L 456 532 Z M 1168 529 L 1169 532 L 1172 533 L 1172 532 L 1173 531 L 1172 531 L 1171 530 L 1172 529 L 1170 531 L 1169 531 L 1168 530 Z M 1076 528 L 1077 527 L 1078 528 L 1077 529 Z M 465 530 L 464 529 L 463 529 L 461 527 L 460 528 L 457 528 L 454 531 L 453 531 L 452 532 L 453 533 L 454 533 L 455 532 L 457 532 L 458 531 L 457 530 L 460 528 L 463 529 L 464 530 L 464 531 L 465 531 Z M 466 525 L 467 524 L 468 524 L 469 525 L 468 526 L 467 526 Z M 1178 524 L 1178 525 L 1179 526 L 1179 524 Z M 468 524 L 469 523 L 470 523 L 471 524 L 470 525 L 469 525 Z M 1030 520 L 1029 521 L 1028 521 L 1028 522 L 1027 523 L 1027 527 L 1028 528 L 1029 528 L 1031 530 L 1032 530 L 1035 527 L 1035 523 L 1033 521 Z M 1170 518 L 1169 519 L 1168 519 L 1168 520 L 1170 522 L 1170 521 L 1169 520 L 1169 519 Z M 1162 517 L 1163 516 L 1164 517 L 1163 518 Z M 1162 516 L 1162 517 L 1163 518 L 1164 518 L 1164 517 L 1163 516 Z M 1155 516 L 1156 515 L 1157 516 L 1156 517 Z M 1108 516 L 1109 515 L 1110 515 L 1111 516 L 1111 517 L 1110 518 L 1109 518 L 1108 517 Z M 1157 515 L 1158 514 L 1159 515 L 1158 516 Z M 1151 514 L 1152 513 L 1153 513 L 1154 514 L 1153 515 L 1152 515 Z M 1153 513 L 1154 512 L 1155 513 L 1154 514 Z M 1150 513 L 1151 512 L 1152 513 L 1151 514 Z M 1169 512 L 1170 511 L 1171 512 L 1170 513 Z M 1170 511 L 1169 512 L 1170 513 L 1171 513 L 1171 512 Z M 1163 511 L 1162 511 L 1162 513 L 1161 514 L 1163 514 Z M 1151 511 L 1152 510 L 1153 511 L 1152 512 Z M 1048 511 L 1049 510 L 1050 511 L 1049 512 Z M 1072 510 L 1073 509 L 1074 510 L 1073 511 Z M 1048 510 L 1048 511 L 1049 512 L 1050 512 L 1050 510 Z M 1207 510 L 1206 509 L 1205 510 L 1205 511 L 1207 511 Z M 1070 507 L 1071 506 L 1072 507 L 1072 508 L 1071 509 L 1070 508 Z M 1094 504 L 1095 504 L 1096 505 L 1096 506 L 1098 508 L 1098 509 L 1099 509 L 1101 511 L 1101 512 L 1102 511 L 1106 511 L 1107 512 L 1108 512 L 1110 514 L 1109 515 L 1108 515 L 1108 521 L 1109 521 L 1109 520 L 1108 519 L 1109 518 L 1110 518 L 1112 516 L 1113 517 L 1113 518 L 1114 517 L 1115 517 L 1117 519 L 1116 520 L 1117 521 L 1118 520 L 1119 521 L 1120 521 L 1125 526 L 1125 527 L 1126 527 L 1128 529 L 1128 530 L 1131 533 L 1133 539 L 1134 539 L 1136 541 L 1136 543 L 1138 546 L 1138 550 L 1139 551 L 1139 556 L 1138 557 L 1138 559 L 1139 560 L 1139 562 L 1137 564 L 1138 565 L 1136 567 L 1136 570 L 1134 572 L 1132 570 L 1133 569 L 1134 569 L 1134 568 L 1133 569 L 1132 568 L 1130 568 L 1126 564 L 1127 563 L 1128 563 L 1128 561 L 1129 560 L 1128 559 L 1127 559 L 1128 559 L 1129 560 L 1128 561 L 1126 561 L 1125 560 L 1125 561 L 1124 562 L 1122 562 L 1119 560 L 1115 560 L 1114 559 L 1108 559 L 1107 558 L 1106 559 L 1099 559 L 1098 560 L 1095 560 L 1094 561 L 1092 561 L 1091 562 L 1089 562 L 1088 563 L 1087 562 L 1087 561 L 1086 560 L 1086 547 L 1087 546 L 1087 533 L 1088 532 L 1088 528 L 1089 527 L 1089 522 L 1090 521 L 1090 517 L 1091 516 L 1091 514 L 1092 513 L 1092 512 L 1091 511 L 1093 509 L 1093 505 Z M 490 505 L 491 504 L 492 504 L 493 505 L 492 506 L 491 506 Z M 1158 504 L 1159 505 L 1159 506 L 1159 505 L 1158 504 L 1157 505 L 1156 505 L 1156 507 L 1157 507 L 1157 505 Z M 493 504 L 491 504 L 490 505 L 491 506 L 492 506 L 493 505 Z M 1139 503 L 1140 502 L 1141 503 L 1140 504 Z M 1095 503 L 1096 502 L 1097 503 L 1096 504 Z M 858 503 L 855 504 L 855 506 L 856 507 L 858 507 L 859 506 L 859 504 Z M 478 503 L 479 502 L 480 502 L 481 503 L 481 504 L 480 505 L 479 505 L 478 504 Z M 984 505 L 984 511 L 985 512 L 985 514 L 986 515 L 987 515 L 992 518 L 993 518 L 995 516 L 996 516 L 997 515 L 998 515 L 999 516 L 999 517 L 999 516 L 998 515 L 998 513 L 999 512 L 999 507 L 997 505 L 996 502 L 988 502 L 986 504 L 985 504 Z M 479 502 L 478 503 L 478 504 L 479 505 L 480 505 L 482 503 Z M 1158 501 L 1157 501 L 1156 502 L 1158 502 Z M 528 501 L 529 500 L 530 501 L 529 502 Z M 493 501 L 494 500 L 495 501 L 494 502 Z M 1138 500 L 1139 499 L 1140 500 L 1139 501 Z M 547 500 L 548 499 L 549 500 L 548 501 Z M 495 501 L 494 500 L 493 501 L 493 502 L 494 502 Z M 560 497 L 561 496 L 562 497 L 561 498 Z M 1099 495 L 1100 496 L 1100 498 L 1101 499 L 1101 500 L 1100 501 L 1100 503 L 1099 504 L 1096 502 L 1096 499 L 1097 498 L 1098 498 L 1098 496 Z M 1014 496 L 1014 499 L 1015 500 L 1017 500 L 1018 501 L 1018 503 L 1019 503 L 1018 502 L 1019 501 L 1018 501 L 1017 500 L 1017 497 Z M 1130 495 L 1131 494 L 1132 495 L 1131 496 Z M 1053 495 L 1054 494 L 1055 494 L 1056 495 L 1055 496 L 1054 496 Z M 1171 494 L 1172 493 L 1173 494 L 1172 495 Z M 1132 494 L 1133 493 L 1134 494 L 1133 495 Z M 1127 494 L 1128 493 L 1129 494 L 1129 495 L 1128 496 L 1127 495 Z M 1173 493 L 1172 493 L 1171 494 L 1172 495 L 1171 498 L 1172 498 L 1172 497 L 1173 496 Z M 1101 493 L 1102 492 L 1103 493 L 1102 494 Z M 1056 493 L 1057 492 L 1058 493 L 1057 494 Z M 1035 494 L 1036 493 L 1035 494 L 1035 497 L 1036 497 L 1037 498 L 1040 498 L 1041 497 L 1040 498 L 1039 497 L 1037 497 L 1036 496 L 1037 495 L 1036 496 L 1035 495 Z M 544 493 L 545 492 L 546 493 L 545 494 Z M 1182 492 L 1181 493 L 1181 495 L 1183 495 L 1183 493 Z M 583 492 L 584 491 L 585 491 L 586 492 L 585 493 L 584 493 Z M 1145 491 L 1146 492 L 1147 492 L 1147 491 Z M 1102 491 L 1103 490 L 1104 491 L 1103 492 Z M 591 491 L 592 490 L 593 491 L 592 492 Z M 1137 490 L 1137 491 L 1139 493 L 1139 494 L 1139 493 L 1138 492 L 1138 490 Z M 1105 490 L 1106 489 L 1107 490 L 1106 491 Z M 592 490 L 593 489 L 594 490 L 593 491 Z M 1011 490 L 1014 488 L 1015 489 L 1015 490 L 1014 491 L 1012 491 Z M 1012 488 L 1011 489 L 1011 491 L 1014 491 L 1015 490 L 1015 489 L 1014 488 Z M 1116 486 L 1117 485 L 1118 486 L 1117 487 Z M 1108 488 L 1111 485 L 1115 485 L 1116 486 L 1115 487 L 1113 487 L 1110 489 L 1109 489 Z M 1034 488 L 1034 486 L 1035 485 L 1037 487 L 1035 489 Z M 1007 483 L 1008 482 L 1009 483 L 1008 484 Z M 1016 482 L 1017 481 L 1018 482 L 1017 483 Z M 1011 482 L 1012 481 L 1013 482 L 1012 483 Z M 1010 479 L 1012 481 L 1009 483 L 1008 482 L 1008 481 Z M 1164 478 L 1165 479 L 1166 479 L 1166 478 Z M 1143 478 L 1144 477 L 1145 478 L 1144 479 Z M 592 479 L 593 479 L 596 477 L 595 478 L 594 477 L 593 477 L 592 478 Z M 678 475 L 679 474 L 680 475 L 679 476 Z M 932 476 L 931 477 L 930 477 L 929 476 L 929 475 L 930 474 L 928 476 L 928 477 L 931 477 Z M 684 474 L 685 473 L 686 474 L 685 475 Z M 944 473 L 945 473 L 946 472 L 944 472 Z M 1151 471 L 1152 470 L 1153 471 L 1152 472 Z M 965 471 L 966 470 L 967 471 L 966 472 Z M 1148 469 L 1149 468 L 1150 469 L 1150 470 L 1149 471 L 1148 470 Z M 720 469 L 721 468 L 722 469 L 721 470 Z M 1145 468 L 1146 467 L 1147 467 L 1148 468 L 1147 469 L 1146 469 Z M 921 467 L 922 466 L 923 467 L 922 468 Z M 885 466 L 886 465 L 888 465 L 889 466 L 888 467 L 886 467 Z M 883 465 L 884 464 L 885 465 L 884 466 Z M 656 465 L 657 464 L 658 465 L 657 466 Z M 660 464 L 661 463 L 662 463 L 663 464 L 662 465 L 661 465 Z M 839 463 L 840 462 L 841 462 L 842 463 L 841 464 L 840 464 Z M 1042 462 L 1043 461 L 1044 462 L 1043 463 Z M 1111 461 L 1112 460 L 1113 461 L 1112 462 Z M 662 461 L 663 460 L 664 461 L 663 462 Z M 1110 460 L 1111 459 L 1112 460 L 1111 461 Z M 1051 459 L 1052 458 L 1053 459 L 1052 460 Z M 1019 459 L 1020 458 L 1021 459 L 1020 460 Z M 1107 458 L 1108 457 L 1109 457 L 1110 458 L 1110 459 L 1109 460 Z M 1038 458 L 1039 457 L 1040 458 L 1039 459 Z M 1052 457 L 1053 456 L 1054 457 L 1053 458 Z M 1029 457 L 1030 456 L 1033 458 L 1032 459 L 1030 459 L 1029 458 Z M 1023 456 L 1024 457 L 1022 460 L 1021 459 L 1021 457 L 1022 456 Z M 1009 457 L 1010 456 L 1011 457 L 1010 458 Z M 1043 454 L 1042 454 L 1042 456 L 1043 455 Z M 1022 454 L 1023 453 L 1024 454 L 1023 455 Z M 1012 453 L 1013 452 L 1016 452 L 1017 453 L 1016 454 L 1013 454 Z M 1000 453 L 1001 452 L 1002 453 L 1001 454 Z M 1034 451 L 1035 450 L 1036 451 L 1035 452 Z M 1027 450 L 1028 449 L 1029 450 L 1028 451 Z M 1055 448 L 1054 448 L 1053 449 L 1053 450 L 1055 450 Z M 1191 447 L 1192 446 L 1193 446 L 1194 447 L 1193 448 L 1192 448 Z M 813 447 L 814 446 L 815 447 L 814 448 Z M 1192 446 L 1191 447 L 1191 449 L 1192 450 L 1193 450 L 1194 449 L 1194 447 L 1193 446 Z M 950 446 L 951 445 L 952 446 L 951 447 Z M 933 446 L 934 445 L 935 446 L 934 447 Z M 918 446 L 919 445 L 920 446 L 919 447 Z M 916 446 L 917 445 L 918 446 L 917 447 Z M 909 446 L 910 445 L 912 445 L 913 446 L 913 447 L 912 448 Z M 891 446 L 892 445 L 893 446 L 892 447 Z M 814 446 L 815 445 L 816 446 L 815 447 Z M 790 446 L 791 445 L 792 446 L 792 447 L 791 448 L 790 447 Z M 1010 445 L 1010 447 L 1013 447 L 1012 447 Z M 1051 443 L 1051 444 L 1050 445 L 1051 446 L 1050 447 L 1051 447 Z M 1044 443 L 1043 444 L 1042 444 L 1042 446 L 1043 447 L 1044 447 L 1044 446 L 1045 445 L 1044 444 Z M 991 443 L 992 442 L 993 443 L 992 444 Z M 933 443 L 934 442 L 935 443 L 934 444 Z M 1010 442 L 1011 441 L 1012 442 L 1011 443 Z M 991 442 L 991 444 L 993 444 L 993 442 Z M 963 442 L 964 441 L 965 442 L 964 443 Z M 1010 442 L 1011 443 L 1012 442 L 1013 443 L 1014 443 L 1013 443 L 1012 442 L 1013 441 L 1011 441 Z M 889 441 L 890 440 L 891 441 L 890 442 Z M 968 440 L 965 440 L 964 441 L 963 441 L 963 443 L 964 444 L 964 446 L 965 447 L 964 446 L 965 445 L 964 444 L 966 441 L 968 443 L 967 444 L 968 444 L 968 443 L 969 442 L 970 443 L 971 443 L 970 443 L 969 442 L 968 443 L 966 441 L 967 440 Z M 947 440 L 946 440 L 946 441 L 945 442 L 944 442 L 945 443 L 947 441 Z M 913 440 L 914 439 L 915 440 L 914 441 Z M 1163 439 L 1161 441 L 1161 445 L 1163 447 L 1167 447 L 1169 445 L 1169 444 L 1170 443 L 1169 442 L 1169 441 L 1167 439 Z M 913 439 L 913 440 L 914 441 L 915 441 L 915 440 L 914 439 Z M 1071 438 L 1072 437 L 1073 438 L 1072 439 Z M 1070 437 L 1071 436 L 1072 437 L 1071 438 Z M 921 439 L 922 440 L 924 438 L 926 441 L 926 440 L 925 439 L 925 437 L 924 437 L 922 439 Z M 1019 436 L 1020 435 L 1021 436 L 1020 437 Z M 1024 435 L 1023 436 L 1020 435 L 1019 436 L 1019 437 L 1021 439 L 1022 439 L 1022 437 Z M 960 431 L 961 430 L 962 431 L 961 432 Z M 961 429 L 960 430 L 960 432 L 961 432 L 962 431 L 962 430 Z M 1193 419 L 1191 419 L 1190 420 L 1190 422 L 1191 423 L 1192 423 L 1194 421 L 1193 420 Z M 973 418 L 974 417 L 975 417 L 976 418 L 975 419 L 974 419 Z M 1090 417 L 1091 416 L 1092 417 L 1091 418 Z M 936 414 L 934 416 L 934 419 L 935 420 L 935 421 L 938 423 L 941 423 L 943 421 L 943 415 L 942 414 L 940 414 L 939 413 L 938 414 Z M 981 410 L 982 410 L 983 411 L 983 414 L 980 417 L 978 417 L 977 418 L 974 417 L 973 418 L 976 420 L 976 421 L 975 422 L 975 429 L 977 431 L 977 432 L 979 435 L 980 434 L 981 434 L 984 436 L 985 435 L 988 435 L 989 436 L 989 437 L 990 438 L 991 438 L 993 436 L 993 430 L 994 429 L 994 427 L 995 426 L 995 425 L 994 424 L 995 423 L 994 422 L 994 421 L 992 419 L 992 417 L 989 417 L 988 416 L 985 415 L 984 414 L 984 412 L 982 410 Z M 1076 407 L 1077 406 L 1078 407 L 1077 408 Z M 1101 398 L 1102 398 L 1103 397 L 1101 397 Z M 1087 397 L 1088 396 L 1089 397 L 1089 398 L 1088 399 L 1087 398 Z M 892 396 L 890 398 L 890 402 L 891 402 L 893 404 L 894 404 L 897 402 L 897 400 L 898 399 L 897 398 L 897 397 L 896 397 L 895 396 Z M 966 394 L 965 395 L 964 395 L 964 398 L 967 400 L 968 399 L 969 399 L 969 395 Z M 1085 385 L 1086 386 L 1086 390 L 1085 391 L 1084 390 L 1084 386 Z M 1085 384 L 1086 383 L 1087 384 L 1086 385 Z M 1174 558 L 1167 557 L 1167 555 L 1171 551 L 1168 546 L 1171 546 L 1174 541 L 1173 542 L 1168 537 L 1169 535 L 1166 534 L 1163 528 L 1164 524 L 1162 522 L 1164 520 L 1159 520 L 1156 517 L 1159 515 L 1152 510 L 1153 509 L 1150 510 L 1147 507 L 1150 500 L 1146 506 L 1139 499 L 1133 496 L 1133 492 L 1129 494 L 1128 492 L 1122 492 L 1121 491 L 1123 486 L 1119 490 L 1115 488 L 1116 486 L 1118 487 L 1118 483 L 1125 483 L 1127 481 L 1132 482 L 1135 479 L 1137 481 L 1138 479 L 1145 478 L 1149 481 L 1149 478 L 1148 480 L 1146 477 L 1147 476 L 1153 476 L 1155 479 L 1158 475 L 1164 476 L 1167 474 L 1165 472 L 1167 469 L 1165 469 L 1163 473 L 1159 472 L 1159 469 L 1157 472 L 1155 472 L 1154 469 L 1150 469 L 1149 466 L 1143 467 L 1142 466 L 1144 464 L 1137 467 L 1136 469 L 1133 469 L 1126 462 L 1124 464 L 1121 463 L 1120 465 L 1116 462 L 1114 463 L 1114 460 L 1112 459 L 1114 456 L 1107 458 L 1107 455 L 1105 457 L 1104 453 L 1100 452 L 1100 449 L 1099 451 L 1097 449 L 1099 447 L 1096 446 L 1098 443 L 1099 445 L 1097 442 L 1100 441 L 1098 440 L 1099 437 L 1101 439 L 1100 436 L 1096 438 L 1092 433 L 1091 426 L 1093 422 L 1091 419 L 1093 417 L 1090 413 L 1090 410 L 1092 408 L 1090 407 L 1092 405 L 1089 401 L 1093 397 L 1088 395 L 1091 392 L 1090 393 L 1086 391 L 1087 388 L 1089 389 L 1086 387 L 1088 385 L 1086 383 L 1088 381 L 1085 384 L 1084 382 L 1083 393 L 1079 393 L 1080 395 L 1076 398 L 1076 400 L 1080 402 L 1076 404 L 1078 405 L 1075 408 L 1077 409 L 1075 413 L 1077 417 L 1077 425 L 1075 426 L 1078 427 L 1076 429 L 1077 431 L 1075 432 L 1075 435 L 1073 435 L 1075 437 L 1073 438 L 1071 436 L 1070 438 L 1072 439 L 1070 441 L 1069 440 L 1069 442 L 1071 441 L 1071 443 L 1073 443 L 1072 447 L 1065 455 L 1061 456 L 1060 453 L 1061 457 L 1058 457 L 1056 461 L 1054 458 L 1055 456 L 1050 457 L 1049 462 L 1039 459 L 1042 458 L 1036 454 L 1035 449 L 1033 452 L 1036 456 L 1033 458 L 1028 453 L 1028 449 L 1026 452 L 1025 451 L 1020 454 L 1009 449 L 1008 453 L 1005 450 L 1008 447 L 1005 443 L 1001 447 L 1006 451 L 1004 454 L 1001 451 L 1000 453 L 996 451 L 998 449 L 992 447 L 994 449 L 992 451 L 991 450 L 995 454 L 990 455 L 987 454 L 982 448 L 979 449 L 977 453 L 975 453 L 975 450 L 971 450 L 973 451 L 969 452 L 967 450 L 965 451 L 961 448 L 951 445 L 948 448 L 946 447 L 944 449 L 943 446 L 942 448 L 939 445 L 937 447 L 935 445 L 935 442 L 933 443 L 932 447 L 931 445 L 926 444 L 930 446 L 930 448 L 925 448 L 923 446 L 924 444 L 922 444 L 921 442 L 919 445 L 918 443 L 906 446 L 899 446 L 897 444 L 894 444 L 893 446 L 891 443 L 892 441 L 889 439 L 891 438 L 888 440 L 885 439 L 890 443 L 889 445 L 883 446 L 882 444 L 880 444 L 879 446 L 874 446 L 873 444 L 872 446 L 862 446 L 861 444 L 859 446 L 855 446 L 855 444 L 857 444 L 853 446 L 851 445 L 836 447 L 835 445 L 833 447 L 830 447 L 828 445 L 831 442 L 830 441 L 830 443 L 827 442 L 824 445 L 811 444 L 806 446 L 803 445 L 800 448 L 795 448 L 793 446 L 795 444 L 789 444 L 789 447 L 783 447 L 782 449 L 775 446 L 775 448 L 771 448 L 770 450 L 767 449 L 757 451 L 756 448 L 755 450 L 752 449 L 741 453 L 721 451 L 722 453 L 724 452 L 727 454 L 720 456 L 719 453 L 714 457 L 711 456 L 713 454 L 706 454 L 700 459 L 692 457 L 682 462 L 677 458 L 678 457 L 672 463 L 663 464 L 663 460 L 662 463 L 656 464 L 653 467 L 650 466 L 644 469 L 635 468 L 630 472 L 625 472 L 624 470 L 622 474 L 618 474 L 616 472 L 616 475 L 586 482 L 582 485 L 576 483 L 576 485 L 562 489 L 561 487 L 558 488 L 558 491 L 553 490 L 552 492 L 550 491 L 547 494 L 544 492 L 544 495 L 509 506 L 486 517 L 479 519 L 477 518 L 476 520 L 465 525 L 467 527 L 472 527 L 472 524 L 478 525 L 485 520 L 489 521 L 493 518 L 504 516 L 505 513 L 511 513 L 517 509 L 527 507 L 529 505 L 534 505 L 535 503 L 537 504 L 538 502 L 539 503 L 544 500 L 549 501 L 555 498 L 562 497 L 563 499 L 564 496 L 571 496 L 578 493 L 584 493 L 585 495 L 587 495 L 587 491 L 590 491 L 590 493 L 595 489 L 596 490 L 602 487 L 605 488 L 616 484 L 620 485 L 622 483 L 625 483 L 625 486 L 634 481 L 645 481 L 645 479 L 653 479 L 657 477 L 659 479 L 662 477 L 664 478 L 664 476 L 676 476 L 679 478 L 678 477 L 682 474 L 686 475 L 687 473 L 694 473 L 703 470 L 704 472 L 706 470 L 726 471 L 724 469 L 730 467 L 743 466 L 744 468 L 747 468 L 748 466 L 753 466 L 754 468 L 755 466 L 756 467 L 756 465 L 766 466 L 768 464 L 778 464 L 780 466 L 778 464 L 779 463 L 836 462 L 837 463 L 835 464 L 837 463 L 840 465 L 843 462 L 856 462 L 857 464 L 869 463 L 871 466 L 866 466 L 871 468 L 867 469 L 870 469 L 872 467 L 873 469 L 875 467 L 878 469 L 881 467 L 880 466 L 878 468 L 876 466 L 871 466 L 871 463 L 883 463 L 884 467 L 900 467 L 909 464 L 918 465 L 919 466 L 916 468 L 924 469 L 925 467 L 926 469 L 925 467 L 928 466 L 931 468 L 939 467 L 940 468 L 938 469 L 940 470 L 939 469 L 942 467 L 946 470 L 949 470 L 950 468 L 956 469 L 957 471 L 959 470 L 961 473 L 966 474 L 967 472 L 969 475 L 968 472 L 973 471 L 978 475 L 977 476 L 982 477 L 982 479 L 987 475 L 995 478 L 995 482 L 997 481 L 998 483 L 1000 482 L 999 483 L 996 479 L 998 478 L 1001 480 L 999 478 L 1002 477 L 1003 479 L 1005 479 L 1005 482 L 1007 484 L 1015 484 L 1018 488 L 1019 485 L 1032 485 L 1035 490 L 1038 487 L 1042 490 L 1045 488 L 1051 488 L 1056 492 L 1055 494 L 1050 494 L 1054 496 L 1054 499 L 1055 497 L 1056 499 L 1055 497 L 1061 492 L 1066 495 L 1066 498 L 1069 498 L 1070 502 L 1072 503 L 1068 510 L 1070 508 L 1073 511 L 1070 514 L 1071 515 L 1070 513 L 1073 511 L 1074 516 L 1075 514 L 1076 515 L 1076 532 L 1078 528 L 1079 536 L 1077 538 L 1079 536 L 1081 545 L 1081 567 L 1074 575 L 1068 586 L 1064 602 L 1065 639 L 1061 654 L 1054 661 L 1045 661 L 1041 657 L 1042 655 L 1039 654 L 1040 651 L 1038 650 L 1037 645 L 1043 642 L 1037 642 L 1040 640 L 1038 639 L 1038 634 L 1040 633 L 1039 628 L 1044 614 L 1046 597 L 1045 590 L 1039 576 L 1028 566 L 1016 562 L 1001 564 L 994 568 L 984 581 L 978 601 L 977 633 L 979 640 L 976 642 L 980 642 L 981 648 L 979 650 L 980 649 L 982 652 L 981 655 L 983 656 L 984 660 L 983 664 L 984 666 L 986 666 L 986 671 L 988 672 L 1000 698 L 999 701 L 1000 699 L 1019 732 L 1034 747 L 1037 747 L 1042 754 L 1042 761 L 1039 762 L 1038 767 L 1040 762 L 1041 764 L 1043 764 L 1042 769 L 1044 769 L 1044 783 L 1042 789 L 1042 804 L 1046 810 L 1050 809 L 1053 803 L 1051 791 L 1051 775 L 1055 775 L 1057 773 L 1061 774 L 1061 772 L 1057 770 L 1054 772 L 1052 771 L 1052 763 L 1055 762 L 1055 757 L 1058 756 L 1057 755 L 1054 757 L 1052 755 L 1055 751 L 1059 750 L 1062 753 L 1060 756 L 1062 755 L 1063 757 L 1061 763 L 1058 765 L 1060 765 L 1063 770 L 1066 768 L 1068 769 L 1068 763 L 1063 758 L 1066 755 L 1068 756 L 1067 754 L 1070 751 L 1072 752 L 1070 754 L 1072 752 L 1076 752 L 1074 751 L 1077 744 L 1075 746 L 1074 745 L 1074 747 L 1076 747 L 1075 749 L 1071 748 L 1070 746 L 1081 726 L 1080 724 L 1085 715 L 1084 713 L 1086 705 L 1088 703 L 1088 696 L 1092 690 L 1094 693 L 1090 700 L 1090 710 L 1088 712 L 1088 719 L 1086 721 L 1087 726 L 1083 728 L 1084 730 L 1082 732 L 1086 732 L 1091 728 L 1088 726 L 1092 722 L 1093 726 L 1096 725 L 1095 722 L 1097 720 L 1097 716 L 1094 715 L 1096 709 L 1099 712 L 1098 714 L 1101 716 L 1101 721 L 1104 719 L 1106 720 L 1105 725 L 1102 727 L 1104 735 L 1109 738 L 1116 736 L 1118 732 L 1118 725 L 1114 722 L 1108 722 L 1105 718 L 1107 715 L 1109 716 L 1110 712 L 1106 715 L 1103 713 L 1100 707 L 1102 704 L 1105 707 L 1107 706 L 1107 711 L 1106 712 L 1108 703 L 1105 700 L 1109 696 L 1106 696 L 1108 692 L 1107 691 L 1107 694 L 1105 692 L 1104 687 L 1108 686 L 1106 684 L 1109 683 L 1107 677 L 1112 675 L 1107 673 L 1113 671 L 1114 674 L 1113 669 L 1110 671 L 1109 670 L 1113 666 L 1109 666 L 1109 663 L 1107 662 L 1114 657 L 1115 658 L 1117 655 L 1120 655 L 1122 653 L 1125 655 L 1127 653 L 1125 655 L 1119 650 L 1120 646 L 1121 648 L 1121 645 L 1124 643 L 1125 644 L 1124 643 L 1129 640 L 1127 638 L 1130 635 L 1132 636 L 1133 634 L 1135 634 L 1132 632 L 1131 627 L 1137 627 L 1134 631 L 1138 626 L 1140 627 L 1142 624 L 1142 621 L 1140 619 L 1144 616 L 1144 613 L 1141 617 L 1139 615 L 1136 616 L 1135 613 L 1137 611 L 1138 613 L 1142 606 L 1144 607 L 1143 609 L 1145 607 L 1145 600 L 1141 600 L 1140 602 L 1138 598 L 1140 596 L 1138 595 L 1138 591 L 1147 584 L 1150 587 L 1149 590 L 1151 591 L 1151 620 L 1148 622 L 1150 623 L 1149 633 L 1146 633 L 1148 634 L 1149 640 L 1152 645 L 1156 645 L 1158 643 L 1159 638 L 1157 628 L 1158 588 L 1160 586 L 1158 585 L 1158 581 L 1161 578 L 1163 580 L 1164 579 L 1162 578 L 1167 571 L 1171 571 L 1169 570 L 1172 569 L 1165 567 L 1167 566 L 1166 565 L 1169 563 L 1169 561 Z" fill="#FF73C8" fill-rule="evenodd"/>
</svg>
